<?xml version="1.0" encoding="UTF-8"?>
<svg id="Layer_2" data-name="Layer 2" xmlns="http://www.w3.org/2000/svg" viewBox="0 0 93.96 17.89">
  <defs>
    <style>
      .cls-1 {
        fill: #fff;
      }

      .cls-2 {
        fill: #2b3086;
      }

      .cls-3 {
        fill: #231f20;
      }

      .cls-4 {
        isolation: isolate;
      }

      .cls-5 {
        fill: #ec2024;
      }

      .cls-6 {
        fill: #208aca;
      }
    </style>
  </defs>
  <g id="Layer_2-2" data-name="Layer 2">
    <g id="Layer_1-2" data-name="Layer 1-2">
      <rect class="cls-1" width="93.96" height="17.89" rx="3" ry="3"/>
      <g>
        <path class="cls-2" d="M10.37,10.01h-2.86v-.32c.08,0,.2-.02.35-.03.15-.01.26-.03.32-.05.1-.04.17-.09.21-.16.05-.07.07-.16.07-.28v-4.59c0-.1-.02-.19-.05-.26s-.11-.13-.23-.18c-.09-.04-.2-.07-.34-.1-.13-.03-.25-.05-.33-.06v-.32h2.86v.32c-.09,0-.2.01-.33.03s-.24.04-.34.07c-.11.04-.19.09-.23.17s-.06.17-.06.27v4.59c0,.1.02.19.06.26.04.08.12.14.22.18.06.02.17.05.31.08.14.03.26.04.36.05v.32h.01Z"/>
        <path class="cls-2" d="M15.96,10.01h-2.15v-.29c.07,0,.14-.01.23-.02s.15-.02.2-.04c.08-.03.15-.07.19-.14s.06-.15.06-.26v-2.27c0-.31-.07-.55-.22-.72s-.33-.25-.54-.25c-.16,0-.3.02-.43.07s-.25.11-.35.18c-.1.07-.18.14-.24.22s-.1.14-.13.19v2.53c0,.1.02.18.06.25s.1.12.19.15c.06.03.13.05.2.07.07.02.15.02.23.03v.29h-2.16v-.29c.07,0,.14-.01.21-.02.07,0,.14-.02.19-.04.08-.03.15-.07.19-.14s.06-.15.06-.26v-2.72c0-.1-.02-.19-.06-.28s-.1-.15-.18-.21c-.06-.04-.12-.06-.2-.08s-.16-.03-.25-.03v-.29l1.46-.1.06.06v.62h.02c.07-.07.16-.16.27-.26.11-.1.21-.18.3-.24.11-.07.24-.13.39-.18s.32-.07.51-.07c.42,0,.74.13.94.39.2.26.31.61.31,1.05v2.29c0,.1.02.19.05.25s.1.11.18.15c.07.03.13.05.19.06.05.01.13.02.22.03v.29h0v.03Z"/>
        <path class="cls-2" d="M20.89,5.87c-.13.02-.26.07-.38.15-.12.07-.22.2-.31.39-.18.4-.36.82-.54,1.25-.19.43-.38.89-.58,1.36-.06.14-.12.3-.19.49s-.13.37-.19.54h-.35c-.28-.7-.54-1.34-.78-1.91s-.49-1.17-.74-1.77c-.06-.14-.16-.24-.29-.32-.13-.08-.27-.13-.4-.15v-.29h2.04v.31c-.09,0-.2.02-.34.06s-.2.08-.2.14c0,0,0,.03.02.07s.03.08.05.13c.12.3.29.73.52,1.27.22.54.4.98.54,1.32.11-.26.24-.57.4-.95s.34-.81.53-1.28c.03-.08.06-.16.09-.23s.04-.14.04-.21c0-.05-.02-.1-.07-.14s-.11-.08-.18-.1c-.07-.03-.13-.05-.2-.07s-.12-.02-.16-.03v-.29h1.68v.27h-.01Z"/>
        <path class="cls-2" d="M25.04,8.97c-.18.35-.43.63-.74.84s-.67.31-1.07.31c-.35,0-.66-.06-.93-.19-.27-.13-.49-.29-.66-.51s-.3-.46-.39-.75-.13-.59-.13-.91c0-.29.05-.57.14-.84s.22-.52.4-.74c.17-.21.38-.38.63-.51s.53-.19.85-.19.6.05.83.15.42.24.56.42c.14.17.24.36.31.59s.1.47.1.74v.29h-2.92c0,.29.03.55.08.79.06.24.14.44.26.62.12.17.27.31.46.41.19.1.41.15.67.15s.49-.06.68-.19c.19-.12.38-.35.56-.67l.31.19h0ZM24.06,7.29c0-.17-.01-.35-.04-.53s-.07-.35-.14-.48c-.07-.14-.16-.25-.28-.33-.12-.09-.27-.13-.46-.13-.31,0-.57.13-.78.39-.21.26-.32.62-.34,1.09h2.04,0Z"/>
        <path class="cls-2" d="M30.46,10.01h-2.15v-.29c.07,0,.14-.01.23-.02s.15-.02.2-.04c.08-.03.15-.07.19-.14s.06-.15.06-.26v-2.27c0-.31-.07-.55-.22-.72s-.33-.25-.54-.25c-.16,0-.3.02-.43.07s-.25.11-.35.18c-.1.07-.18.14-.24.22s-.1.14-.13.19v2.53c0,.1.02.18.06.25s.1.12.19.15c.06.03.13.05.2.07.07.02.15.02.23.03v.29h-2.16v-.29c.07,0,.14-.01.21-.02.07,0,.14-.02.19-.04.08-.03.15-.07.19-.14s.06-.15.06-.26v-2.72c0-.1-.02-.19-.06-.28s-.1-.15-.18-.21c-.06-.04-.12-.06-.2-.08-.08-.02-.16-.03-.25-.03v-.29l1.46-.1.06.06v.62h.02c.07-.07.16-.16.27-.26.11-.1.21-.18.3-.24.11-.07.24-.13.39-.18s.32-.07.51-.07c.42,0,.74.13.94.39.2.26.31.61.31,1.05v2.29c0,.1.02.19.05.25s.1.11.18.15c.07.03.13.05.19.06.05.01.13.02.22.03v.29h0v.03Z"/>
        <path class="cls-5" d="M33.88,9.39h-.03c-.07.06-.15.13-.25.22s-.21.17-.33.24c-.14.09-.28.16-.39.2s-.27.07-.44.07c-.43,0-.77-.16-1.01-.47s-.37-.74-.37-1.27c0-.38.07-.74.2-1.09.13-.35.31-.66.54-.93.22-.26.49-.47.81-.64.31-.16.64-.24.98-.24.2,0,.41.03.61.08.2.05.37.12.5.2l.35-1.52c.02-.08.03-.14.04-.19s.01-.09.01-.15c0-.11-.02-.19-.06-.25s-.1-.1-.18-.13c-.07-.03-.17-.05-.29-.05-.13,0-.24-.02-.34-.03l.06-.27,1.81-.1.05.07-1.24,5.36c-.02.1-.05.21-.07.34s-.04.22-.04.29c0,.17.04.28.11.35.07.06.19.09.36.09.06,0,.14,0,.24-.03s.18-.04.24-.06l-.07.29c-.25.11-.46.19-.62.24s-.32.07-.46.07c-.21,0-.39-.06-.51-.17s-.19-.28-.19-.52h-.02ZM34.51,6.55c0-.09-.03-.17-.07-.25s-.09-.16-.15-.22c-.07-.07-.16-.14-.27-.19-.11-.05-.24-.07-.39-.07-.23,0-.45.07-.65.21s-.38.33-.54.57c-.15.23-.27.51-.36.83-.09.32-.13.65-.13.97,0,.18,0,.34.03.48s.06.27.12.39c.06.11.14.2.24.26s.24.1.42.1c.16,0,.34-.05.53-.15s.41-.27.64-.51l.57-2.42h.01Z"/>
        <path class="cls-5" d="M38.5,9.52l-.07.29c-.27.11-.49.19-.66.23-.16.04-.3.06-.42.06-.24,0-.42-.06-.54-.19-.12-.12-.18-.28-.18-.46,0-.07,0-.14.02-.21s.03-.17.06-.28l.47-1.9c.02-.1.05-.22.07-.34.02-.12.03-.22.03-.3,0-.17-.03-.28-.08-.33-.06-.06-.17-.08-.34-.08-.06,0-.15.01-.26.03s-.19.04-.25.05l.07-.29c.23-.1.44-.18.62-.23s.33-.08.44-.08c.24,0,.42.06.53.17s.17.27.17.47c0,.05,0,.13-.02.22s-.03.18-.05.28l-.47,1.9c-.03.12-.06.23-.08.34-.02.11-.03.2-.03.28,0,.17.04.29.11.35s.2.09.37.09c.06,0,.14,0,.24-.02.11-.02.19-.03.24-.05h.01ZM38.82,3.81c0,.17-.06.32-.17.44-.11.13-.25.19-.41.19-.15,0-.28-.06-.39-.18s-.17-.26-.17-.41.06-.31.17-.43.24-.18.39-.18c.17,0,.31.06.42.17s.16.25.16.4h0Z"/>
        <path class="cls-5" d="M40.42,10.14c-.44,0-.81-.08-1.1-.24s-.44-.36-.44-.61c0-.12.04-.23.13-.34.09-.1.19-.16.32-.16s.21.03.29.08c.07.06.13.12.17.19.05.08.08.17.12.28s.06.2.09.26c.05.05.11.1.19.14s.19.06.34.06c.32,0,.57-.08.73-.24.17-.16.25-.38.25-.65,0-.2-.08-.36-.23-.49-.16-.12-.39-.23-.69-.33-.11-.04-.24-.09-.39-.16s-.27-.15-.36-.24c-.11-.09-.19-.21-.26-.34s-.1-.29-.1-.46c0-.38.17-.71.51-.99.34-.28.76-.42,1.26-.42.12,0,.24,0,.38.02.13.01.28.05.44.1.14.05.26.12.36.21s.15.21.15.36c0,.12-.04.23-.12.33s-.19.15-.32.15c-.11,0-.2-.02-.27-.07s-.13-.11-.18-.19-.09-.17-.12-.26c-.03-.09-.06-.18-.1-.27-.06-.02-.11-.04-.15-.05-.05,0-.1-.01-.18-.01-.29,0-.51.08-.66.24s-.23.34-.23.56.07.37.2.47.36.22.67.33c.4.15.7.31.88.5s.28.42.28.7c0,.45-.17.82-.52,1.11-.35.28-.79.43-1.32.43h-.02Z"/>
        <path d="M20.01,13.86h-1.01v-.11h.12c.05,0,.09-.01.11-.02.03-.01.06-.03.08-.06s.02-.06.02-.1v-1.63s0-.07-.02-.09-.04-.05-.08-.06c-.03-.01-.07-.02-.12-.04-.05-.01-.09-.02-.12-.02v-.11h1.01v.11s-.07,0-.12.01-.09.02-.12.03c-.04.01-.07.03-.08.06-.01.03-.02.06-.02.09v1.63s0,.07.02.09c.02.03.04.05.08.06.02,0,.06.02.11.03.05,0,.09.02.13.02v.11h.01Z"/>
        <path d="M21.94,13.86h-.76v-.1h.08s.05,0,.07-.01c.03,0,.05-.03.07-.05s.02-.06.02-.09v-.8c0-.11-.03-.2-.08-.26s-.12-.09-.19-.09c-.06,0-.11,0-.15.03-.05.02-.09.04-.12.06-.03.02-.06.05-.08.08s-.04.05-.05.07v.9s0,.07.02.09.04.04.07.05c.02.01.05.02.07.02.03,0,.05,0,.08.01v.1h-.76v-.1h.08s.05,0,.07-.01c.03,0,.05-.03.07-.05.01-.02.02-.06.02-.09v-.96s0-.07-.02-.1-.04-.06-.06-.07c-.02-.01-.04-.02-.07-.03-.03,0-.06,0-.09-.01v-.1l.52-.03.02.02v.22h0s.06-.06.09-.09.07-.06.11-.09c.04-.02.09-.05.14-.06.05-.02.11-.02.18-.02.15,0,.26.05.33.14s.11.22.11.37v.81s0,.07.02.09c.01.02.03.04.06.05.02.01.05.02.07.02h.08v.1h0l-.02-.02Z"/>
        <path d="M23.64,12.4s-.09.02-.13.05-.08.07-.11.14c-.06.14-.13.29-.19.44-.07.15-.13.31-.21.48-.02.05-.04.11-.07.17-.02.07-.05.13-.07.19h-.12c-.1-.25-.19-.47-.28-.68s-.17-.41-.26-.63c-.02-.05-.06-.09-.1-.11-.05-.03-.09-.04-.14-.05v-.1h.72v.11s-.07,0-.12.02-.07.03-.07.05v.02s.01.03.02.05c.04.11.1.26.18.45s.14.35.19.47c.04-.09.09-.2.14-.34s.12-.29.19-.45c.01-.03.02-.06.03-.08,0-.02.01-.05.01-.08,0-.02,0-.03-.03-.05s-.04-.03-.06-.04-.05-.02-.07-.02-.04,0-.06-.01v-.1h.6v.1h0Z"/>
        <path d="M25.06,13.5c-.07.13-.15.22-.26.3-.11.07-.24.11-.38.11-.13,0-.24-.02-.33-.07s-.17-.1-.23-.18-.11-.17-.14-.27-.05-.21-.05-.32c0-.1.02-.2.05-.3s.08-.19.14-.26c.06-.07.13-.13.22-.18.09-.05.19-.07.3-.07s.21.02.29.05.15.09.2.15c.05.06.09.13.11.21s.04.17.04.26v.1h-1.03c0,.1,0,.2.03.28s.05.16.09.22c.04.06.09.11.16.14.07.04.15.05.24.05s.17-.02.24-.07.13-.12.2-.24l.11.07h0v.02ZM24.71,12.9c0-.06,0-.12-.02-.19,0-.07-.03-.12-.05-.17-.02-.05-.06-.09-.1-.12s-.1-.05-.16-.05c-.11,0-.2.05-.28.14-.07.09-.11.22-.12.38h.73Z"/>
        <path d="M26.93,13.86h-.76v-.1h.08s.05,0,.07-.01c.03,0,.05-.03.07-.05s.02-.06.02-.09v-.8c0-.11-.03-.2-.08-.26s-.12-.09-.19-.09c-.06,0-.11,0-.15.03-.05.02-.09.04-.12.06-.03.02-.06.05-.08.08-.02.03-.04.05-.05.07v.9s0,.07.02.09.04.04.07.05c.02.01.05.02.07.02.03,0,.05,0,.08.01v.1h-.76v-.1h.08s.05,0,.07-.01c.03,0,.05-.03.07-.05s.02-.06.02-.09v-.96s0-.07-.02-.1-.04-.06-.06-.07c-.02-.01-.04-.02-.07-.03s-.06,0-.09-.01v-.1l.52-.03.02.02v.22h0s.06-.06.09-.09.07-.06.11-.09c.04-.02.09-.05.14-.06.05-.02.11-.02.18-.02.15,0,.26.05.33.14s.11.22.11.37v.81s0,.07.02.09c.01.02.03.04.06.05.02.01.05.02.07.02h.08v.1h0l-.02-.02Z"/>
        <path d="M28.06,13.8c-.07.03-.13.05-.2.07-.06.02-.14.03-.22.03-.13,0-.22-.03-.28-.1-.05-.07-.08-.16-.08-.28v-1.06h-.28v-.15h.29v-.49h.29v.49h.45v.15h-.44v1.03s.02.08.03.11c.02.03.04.05.08.07.03.02.08.02.14.02h.12c.05,0,.09-.01.11-.02v.12h-.01Z"/>
        <path d="M28.74,13.81c0,.08-.02.15-.05.21-.03.07-.07.13-.12.17-.05.05-.09.09-.14.13s-.1.07-.14.09l-.07-.11c.05-.03.1-.06.14-.09s.07-.06.1-.09c.03-.04.06-.08.08-.12.02-.04.04-.09.04-.15h-.08c-.07,0-.13-.02-.17-.06s-.06-.09-.06-.15c0-.04.02-.09.05-.13s.09-.06.15-.06c.09,0,.16.03.2.09.05.06.07.14.07.25h0v.02Z"/>
        <path d="M31.96,12.75c0,.19-.04.36-.11.5s-.17.26-.28.35-.25.16-.39.2-.29.07-.45.07h-.93v-.11h.12c.05,0,.08-.01.1-.02.03-.01.06-.03.07-.06.02-.03.02-.06.02-.1v-1.62s0-.07-.02-.1c-.01-.03-.04-.05-.07-.07-.03-.02-.07-.03-.11-.03s-.07-.01-.1-.01v-.11h.98c.13,0,.27.02.4.06.13.04.24.1.34.17.13.09.24.22.31.37s.11.33.11.54h0v-.03ZM31.57,12.75c0-.15-.02-.29-.06-.41s-.1-.23-.18-.32c-.07-.09-.16-.15-.27-.2-.11-.05-.22-.07-.35-.07h-.27v1.72c0,.1.03.16.08.2s.14.06.26.06c.13,0,.25-.02.35-.07s.18-.11.24-.2.11-.19.14-.31c.03-.12.05-.25.05-.4h0Z"/>
        <path d="M32.92,13.86h-.75v-.1h.08s.05,0,.07-.01c.03,0,.05-.03.07-.05.01-.02.02-.06.02-.09v-.96s0-.06-.02-.09-.04-.05-.06-.07c-.02-.01-.05-.02-.09-.03-.04,0-.07-.02-.1-.02v-.1l.55-.03.02.02v1.27s0,.07.02.09c.01.02.04.04.07.05.02,0,.05.02.07.02s.05,0,.07.01v.1h-.02ZM32.72,11.67c0,.06-.02.11-.06.16s-.09.07-.15.07c-.05,0-.1-.02-.14-.06s-.06-.09-.06-.15.02-.11.06-.15.09-.06.14-.06c.06,0,.11.02.15.06s.06.09.06.14h0Z"/>
        <path d="M34.11,13.1s.08.08.1.13.03.11.03.18c0,.14-.06.26-.16.35-.11.09-.25.14-.42.14-.09,0-.17-.02-.25-.05s-.13-.06-.16-.09l-.03.1h-.12l-.02-.54h.11s.03.09.05.14.06.1.1.15c.04.05.09.09.15.12s.12.05.19.05c.1,0,.18-.02.23-.07.06-.05.08-.11.08-.2,0-.04,0-.08-.03-.11-.02-.03-.04-.06-.08-.09-.03-.02-.08-.05-.13-.07-.05-.02-.11-.04-.17-.06-.05-.02-.1-.03-.17-.06s-.11-.06-.16-.09c-.05-.04-.08-.08-.11-.14-.03-.05-.04-.12-.04-.19,0-.13.05-.24.14-.32s.22-.13.38-.13c.06,0,.12,0,.19.02.06.02.12.03.16.06l.04-.08h.11l.02.5h-.11c-.02-.11-.07-.2-.14-.27s-.16-.11-.27-.11c-.09,0-.15.02-.2.06-.05.04-.07.1-.07.16,0,.05,0,.09.02.12s.04.06.07.08c.03.02.07.04.12.06s.11.04.18.06.13.05.2.08c.06.03.11.06.15.1h.02Z"/>
        <path d="M35.17,13.91c-.23,0-.4-.07-.53-.22s-.19-.35-.19-.6c0-.11.02-.21.05-.31.03-.09.08-.18.15-.26.06-.07.14-.13.23-.18.09-.05.2-.07.31-.07.15,0,.28.04.37.11s.14.17.14.3c0,.05-.01.1-.04.14s-.07.06-.13.06-.11-.02-.14-.05-.05-.07-.05-.11c0-.05,0-.1.02-.15.01-.05.02-.09.02-.11-.02-.03-.05-.06-.09-.07-.04-.01-.08-.02-.12-.02-.05,0-.1.01-.14.03-.05.02-.09.06-.13.12-.04.05-.07.12-.09.21s-.04.2-.04.32c0,.2.04.36.13.48s.2.19.34.19c.1,0,.19-.02.26-.07s.13-.13.19-.22l.1.07c-.07.13-.16.22-.28.3-.11.07-.23.11-.35.11h0Z"/>
        <path d="M37.41,13.07c0,.11-.02.22-.05.32-.03.11-.09.2-.15.27-.07.08-.16.15-.25.19-.1.04-.2.06-.32.06-.1,0-.19-.02-.28-.06s-.17-.09-.24-.16-.12-.16-.16-.26-.06-.22-.06-.34c0-.24.07-.44.21-.6.14-.16.33-.23.56-.23s.4.07.54.22c.14.15.21.34.21.59h0ZM37.08,13.07c0-.08,0-.16-.02-.25s-.04-.16-.07-.22-.08-.12-.13-.16c-.06-.04-.12-.06-.2-.06s-.15.02-.21.06-.1.09-.14.17c-.03.06-.06.14-.07.22s-.02.16-.02.24c0,.1,0,.2.02.28.02.09.04.16.08.23s.08.12.13.16.12.06.2.06c.13,0,.24-.06.31-.19.08-.13.12-.3.12-.53h0Z"/>
        <path d="M39.14,12.4s-.09.02-.13.05-.08.07-.11.14c-.06.14-.13.29-.19.44-.07.15-.13.31-.21.48-.02.05-.04.11-.07.17-.02.07-.05.13-.07.19h-.12c-.1-.25-.19-.47-.28-.68-.08-.2-.17-.41-.26-.63-.02-.05-.06-.09-.1-.11-.05-.03-.09-.04-.14-.05v-.1h.72v.11s-.07,0-.12.02-.07.03-.07.05v.02s.01.03.02.05c.04.11.1.26.18.45s.14.35.19.47c.04-.09.09-.2.14-.34s.12-.29.19-.45c.01-.03.02-.06.03-.08,0-.02.01-.05.01-.08,0-.02,0-.03-.03-.05s-.04-.03-.06-.04-.05-.02-.07-.02-.04,0-.06-.01v-.1h.6v.1h0Z"/>
        <path d="M40.56,13.5c-.06.13-.15.22-.26.3-.11.07-.24.11-.38.11-.13,0-.24-.02-.33-.07s-.17-.1-.23-.18c-.06-.08-.11-.17-.14-.27s-.05-.21-.05-.32c0-.1.02-.2.05-.3s.08-.19.14-.26c.06-.07.13-.13.22-.18.09-.05.19-.07.3-.07s.21.02.29.05.15.09.2.15c.05.06.09.13.11.21s.04.17.04.26v.1h-1.03c0,.1,0,.2.03.28s.05.16.09.22c.04.06.09.11.16.14s.15.05.24.05.17-.02.24-.07.13-.12.2-.24l.11.07h0v.02ZM40.22,12.9c0-.06,0-.12-.02-.19,0-.07-.03-.12-.05-.17-.02-.05-.06-.09-.1-.12s-.1-.05-.16-.05c-.11,0-.2.05-.28.14-.07.09-.11.22-.12.38h.73Z"/>
        <path d="M41.91,12.51c0,.05-.01.1-.04.14s-.07.06-.12.06c-.06,0-.1-.02-.13-.05s-.05-.06-.05-.1v-.12c-.05,0-.11.02-.17.06-.07.04-.12.1-.17.17v.91s0,.07.02.09.04.04.07.05.06.02.1.02.08,0,.11.01v.1h-.82v-.1h.08s.05,0,.07-.01c.03,0,.05-.03.07-.05s.02-.06.02-.09v-.96s0-.06-.02-.1-.04-.06-.06-.08c-.02-.01-.04-.02-.07-.03-.03,0-.06,0-.09-.01v-.1l.52-.03.02.02v.22h0c.06-.09.14-.15.22-.2.08-.04.15-.07.22-.07s.12.02.16.06.06.1.06.17h0v.02Z"/>
        <path d="M42.55,13.68c0,.06-.02.11-.06.15s-.09.06-.15.06-.11-.02-.15-.06-.06-.09-.06-.15.02-.11.06-.15.09-.06.15-.06.11.02.15.06.06.09.06.15Z"/>
        <path class="cls-3" d="M43.63,4.78v-.68h-.03l.34.57h.06l.34-.57h-.03v.68h.12v-.86h-.1l-.38.65h.06l-.39-.65h-.1v.86h.12-.01ZM43.09,4.78v-.76h.3v-.11h-.72v.11h.3v.76s.12,0,.12,0Z"/>
      </g>
      <g>
        <path class="cls-3" d="M89.21,4.06v-.64h-.03l.33.54h.05l.32-.54h-.03v.64h.11v-.82h-.1l-.36.62h.05l-.37-.62h-.1v.82h.13ZM88.69,4.06v-.72h.28v-.1h-.68v.1h.28v.72h.12Z"/>
        <g id="Layer_1-2-2" data-name="Layer 1-2">
          <g>
            <g class="cls-4">
              <g class="cls-4">
                <path d="M59.22,11.39c-.49,0-.96-.07-1.41-.2-.45-.13-.81-.3-1.08-.51l.48-1.07c.26.19.57.34.93.46s.72.18,1.09.18c.28,0,.51-.03.68-.08.17-.06.3-.13.38-.23.08-.1.12-.21.12-.34,0-.16-.06-.29-.19-.39s-.3-.17-.51-.24-.44-.12-.7-.17c-.25-.06-.51-.12-.76-.21s-.49-.19-.7-.31c-.21-.13-.38-.3-.51-.51s-.2-.48-.2-.8c0-.35.09-.67.28-.96s.47-.52.86-.69.86-.26,1.44-.26c.38,0,.76.05,1.14.14.37.09.7.23.99.41l-.44,1.08c-.29-.16-.57-.28-.86-.36s-.57-.12-.84-.12-.5.03-.67.1c-.17.06-.3.15-.38.25s-.11.22-.11.35c0,.16.06.28.19.38.13.1.3.17.51.23.21.06.44.12.69.17.25.06.51.13.76.2.25.08.49.18.7.31.21.13.38.3.51.51s.2.48.2.8c0,.34-.1.66-.29.94s-.48.52-.86.69-.86.26-1.45.26h.01Z"/>
                <path d="M64.1,11.28v-6.12h1.42v6.12h-1.42Z"/>
                <path d="M68.27,11.28v-6.12h1.42v4.97h3.07v1.15h-4.49Z"/>
                <path d="M74.87,11.28v-6.12h2.99c.77,0,1.35.15,1.74.44s.58.68.58,1.15c0,.32-.08.6-.24.83-.16.24-.37.42-.65.55-.27.13-.59.19-.94.19l.17-.36c.38,0,.73.06,1.02.19.3.12.53.31.7.56.17.24.25.54.25.9,0,.52-.21.93-.62,1.23s-1.02.44-1.83.44c0,0-3.17,0-3.17,0ZM76.28,10.22h1.65c.37,0,.65-.06.83-.18.19-.12.28-.31.28-.57s-.09-.45-.28-.57-.47-.19-.83-.19h-1.76v-1.03h1.51c.34,0,.61-.06.79-.18s.28-.3.28-.55-.09-.42-.28-.54c-.18-.12-.45-.18-.79-.18h-1.41v3.99h0Z"/>
                <path d="M85.84,11.39c-.48,0-.93-.08-1.34-.24s-.77-.38-1.07-.66c-.3-.29-.53-.62-.7-1.01-.17-.38-.25-.8-.25-1.26s.08-.87.25-1.26c.17-.38.4-.72.7-1.01s.66-.51,1.07-.66c.41-.16.85-.24,1.33-.24s.93.08,1.33.24c.41.16.76.38,1.06.66.3.29.53.62.7,1,.17.38.25.8.25,1.26s-.08.88-.25,1.26c-.17.39-.4.72-.7,1.01-.3.28-.65.5-1.06.66-.4.16-.85.24-1.32.24h0ZM85.83,10.18c.27,0,.53-.05.76-.14s.43-.23.61-.4.31-.38.41-.62.14-.5.14-.8-.05-.56-.14-.8c-.1-.24-.23-.45-.4-.62s-.37-.31-.61-.4c-.23-.09-.49-.14-.76-.14s-.53.05-.76.14c-.23.09-.43.23-.61.4-.17.17-.31.38-.41.62s-.14.5-.14.8.05.55.14.79c.1.24.23.45.4.63s.37.31.61.4c.23.09.49.14.76.14Z"/>
              </g>
            </g>
            <g class="cls-4">
              <g class="cls-4">
                <path d="M64.1,13.61l.56-1.24h.13l.57,1.24h-.14l-.52-1.16h.05l-.52,1.16h-.14.01ZM64.32,13.28l.04-.11h.72l.04.11h-.8Z"/>
                <path d="M66.44,12.68c.08,0,.14.01.2.04.06.03.1.07.13.13.03.06.05.13.05.22v.54h-.12v-.53c0-.1-.02-.17-.07-.22s-.12-.08-.21-.08c-.07,0-.12.01-.17.04s-.09.06-.11.11c-.03.05-.04.11-.04.18v.49h-.12v-.93h.12v.25l-.02-.05c.03-.07.08-.12.14-.16s.14-.06.23-.06v.03Z"/>
                <path d="M68.49,13.61v-1.24h.13v1.24h-.13Z"/>
              </g>
              <g class="cls-4">
                <path d="M69.87,12.68c.08,0,.14.01.2.04.06.03.1.07.13.13.03.06.05.13.05.22v.54h-.12v-.53c0-.1-.02-.17-.07-.22s-.12-.08-.21-.08c-.07,0-.12.01-.17.04s-.09.06-.11.11c-.03.05-.04.11-.04.18v.49h-.12v-.93h.12v.25l-.02-.05c.03-.07.08-.12.14-.16s.14-.06.23-.06v.03Z"/>
              </g>
              <g class="cls-4">
                <path d="M71.23,13.61l-.41-.93h.13l.38.86h-.06l.38-.86h.12l-.41.93h-.13Z"/>
              </g>
              <g class="cls-4">
                <path d="M72.73,13.62c-.1,0-.18-.02-.25-.06s-.13-.1-.17-.17-.06-.15-.06-.24.02-.17.06-.24c.04-.07.09-.13.16-.17s.15-.06.23-.06.16.02.23.06.12.09.16.17c.04.07.06.15.06.25v.04h-.81v-.09h.74l-.05.04c0-.07-.01-.13-.04-.18s-.07-.09-.12-.12c-.05-.03-.11-.04-.17-.04s-.12.01-.17.04-.09.07-.12.12-.04.11-.04.18v.02c0,.07.02.13.05.19.03.05.07.1.13.13s.12.04.19.04c.06,0,.11,0,.16-.03s.09-.05.13-.09l.07.08s-.09.09-.15.11-.13.04-.2.04l-.02-.02Z"/>
                <path d="M74.3,12.68c.08,0,.14.01.2.04s.1.07.13.13c.03.06.05.13.05.22v.54h-.12v-.53c0-.1-.02-.17-.07-.22s-.12-.08-.21-.08c-.07,0-.12.01-.17.04s-.09.06-.11.11c-.03.05-.04.11-.04.18v.49h-.12v-.93h.12v.25l-.02-.05c.03-.07.08-.12.14-.16.06-.04.14-.06.23-.06v.03Z"/>
                <path d="M75.81,13.62c-.09,0-.17-.02-.24-.06-.07-.04-.12-.1-.17-.17-.04-.07-.06-.15-.06-.25s.02-.18.06-.25.09-.13.17-.17c.07-.04.15-.06.24-.06.08,0,.15.02.22.06.06.04.12.09.15.16.04.07.06.16.06.26s-.02.19-.06.26c-.04.07-.09.12-.15.16s-.14.06-.22.06ZM75.82,13.51c.07,0,.12-.01.18-.04.05-.03.09-.07.12-.13s.04-.12.04-.19,0-.14-.04-.19c-.03-.05-.07-.1-.12-.13s-.11-.04-.18-.04-.12.01-.17.04-.09.07-.12.13c-.03.05-.05.12-.05.19s.02.14.05.19c.03.05.07.1.12.13s.11.04.17.04ZM76.17,13.61v-1.32h.12v1.31h-.12Z"/>
                <path d="M77.12,12.48s-.05,0-.07-.03-.03-.04-.03-.06,0-.05.03-.06.04-.03.07-.03.05,0,.07.02.03.04.03.06,0,.05-.03.07c-.02.02-.04.03-.07.03ZM77.06,13.61v-.93h.12v.93h-.12Z"/>
                <path d="M78.2,13.62c-.08,0-.15-.01-.22-.03-.07-.02-.12-.05-.16-.08l.06-.1s.09.05.14.07c.06.02.12.03.19.03.09,0,.15-.01.19-.04s.06-.06.06-.11c0-.03,0-.06-.03-.08-.02-.02-.05-.03-.08-.04l-.12-.03s-.09-.02-.13-.02-.08-.02-.12-.04c-.04-.02-.06-.04-.09-.08-.02-.03-.03-.07-.03-.13s0-.1.04-.14.07-.07.12-.09.12-.03.2-.03c.06,0,.12,0,.18.02s.11.04.15.06l-.05.1s-.09-.05-.13-.06-.09-.02-.14-.02c-.08,0-.14.01-.18.04s-.06.07-.06.11,0,.06.03.08c.02.02.05.04.09.05l.12.03s.09.02.13.03c.04,0,.08.02.12.04s.07.04.09.07.03.07.03.12,0,.1-.04.14-.07.07-.13.09-.13.03-.21.03h-.02Z"/>
              </g>
              <g class="cls-4">
                <path d="M80.12,13.61v-1.24h.46c.1,0,.19.02.27.05s.13.08.17.14c.04.06.06.14.06.23s-.02.16-.06.23c-.04.06-.1.11-.17.15-.08.03-.17.05-.27.05h-.39l.06-.06v.45s-.13,0-.13,0ZM80.25,13.17l-.06-.06h.39c.12,0,.22-.03.28-.08.06-.05.1-.13.1-.23s-.03-.18-.1-.23c-.06-.05-.16-.08-.28-.08h-.39l.06-.06v.74Z"/>
              </g>
              <g class="cls-4">
                <path d="M81.73,13.61v-.93h.12v.25-.04c0-.07.06-.12.12-.16s.14-.06.23-.06v.12h-.02c-.1,0-.17.03-.23.09-.05.06-.08.14-.08.25v.47h-.14Z"/>
              </g>
              <g class="cls-4">
                <path d="M83.21,13.62c-.09,0-.17-.02-.24-.06s-.13-.1-.17-.17c-.04-.07-.06-.15-.06-.24s.02-.17.06-.25c.04-.07.1-.13.17-.17s.15-.06.24-.06.17.02.24.06.13.1.17.17c.04.07.06.15.06.25s-.02.17-.06.24-.1.13-.17.17-.15.06-.24.06ZM83.21,13.51c.07,0,.13-.01.18-.04s.09-.07.12-.13.04-.12.04-.19,0-.14-.04-.19c-.03-.05-.07-.1-.12-.13s-.11-.04-.18-.04-.12.01-.18.04c-.05.03-.09.07-.12.13-.03.05-.05.12-.05.19s.02.14.05.19c.03.05.07.1.12.13s.11.04.17.04h.01Z"/>
                <path d="M84.73,13.62c-.09,0-.17-.02-.24-.06-.07-.04-.12-.1-.17-.17-.04-.07-.06-.15-.06-.25s.02-.18.06-.25.09-.13.17-.17c.07-.04.15-.06.24-.06.08,0,.15.02.22.06.06.04.12.09.15.16.04.07.06.16.06.26s-.02.19-.06.26c-.04.07-.09.12-.15.16s-.14.06-.22.06ZM84.74,13.51c.07,0,.12-.01.18-.04.05-.03.09-.07.12-.13s.04-.12.04-.19,0-.14-.04-.19c-.03-.05-.07-.1-.12-.13s-.11-.04-.18-.04-.12.01-.17.04-.09.07-.12.13c-.03.05-.05.12-.05.19s.02.14.05.19c.03.05.07.1.12.13s.11.04.17.04ZM85.09,13.61v-1.32h.12v1.31h-.12Z"/>
                <path d="M86.37,13.62c-.08,0-.15-.01-.21-.04-.06-.03-.1-.07-.14-.13-.03-.06-.05-.13-.05-.22v-.54h.12v.52c0,.1.02.17.07.22s.12.08.21.08c.06,0,.12-.01.17-.04s.08-.06.11-.12c.03-.05.04-.11.04-.18v-.49h.12v.93h-.12v-.25l.02.05c-.03.07-.08.12-.14.16-.06.04-.13.06-.22.06h.02Z"/>
              </g>
              <g class="cls-4">
                <path d="M87.96,13.62c-.09,0-.17-.02-.25-.06s-.13-.1-.17-.17c-.04-.07-.06-.15-.06-.24s.02-.17.06-.25c.04-.07.1-.13.17-.17s.15-.06.25-.06c.08,0,.15.02.21.05.06.03.11.08.15.14l-.09.06s-.07-.08-.12-.1-.1-.03-.15-.03c-.07,0-.12.01-.18.04-.05.03-.09.07-.13.13-.03.05-.05.12-.05.19s.02.14.05.19c.03.05.07.1.13.13.05.03.11.04.18.04.06,0,.11-.01.15-.03.05-.02.09-.06.12-.1l.09.06c-.04.06-.09.11-.15.14s-.13.05-.21.05h0Z"/>
              </g>
              <g class="cls-4">
                <path d="M88.85,12.79v-.1h.57v.1h-.57ZM89.29,13.62c-.09,0-.15-.02-.2-.07-.05-.05-.07-.11-.07-.2v-.87h.12v.86c0,.05,0,.1.04.13.03.03.07.04.12.04s.1-.02.14-.05l.04.09s-.05.04-.09.05-.07.02-.11.02h.01Z"/>
              </g>
            </g>
            <g>
              <path d="M52.15,8.61c-.23,0-.41-.17-.41-.44s.18-.43.41-.43.41.17.41.43-.18.44-.41.44h0Z"/>
              <path class="cls-6" d="M55.34,4.06v2.61h-1.1v-1.52h-.99c-1.57,0-2.89,1.07-3.16,2.48h1.42c-.14.14-.22.33-.22.55s.08.41.22.55h-2.57v-.55c0-.19.01-.37.04-.55.28-2.01,2.09-3.57,4.27-3.57h2.09Z"/>
              <path class="cls-6" d="M52.77,7.63h2.57v.55c0,2.27-1.93,4.12-4.31,4.12h-2.08v-2.66h1.1v1.57h.99c1.57,0,2.89-1.07,3.16-2.48h-1.42c.14-.14.22-.33.22-.55s-.08-.41-.22-.55h0Z"/>
              <path d="M51.3,8.18c0,.22.08.41.22.55h-2.57v-.55c0-.19.01-.37.04-.55h2.53c-.14.14-.22.33-.22.55Z"/>
              <rect x="48.95" y="9.64" width="1.1" height="2.66"/>
            </g>
          </g>
        </g>
      </g>
    </g>
  </g>
</svg>