<svg xmlns="http://www.w3.org/2000/svg" width="16" height="16" viewBox="0 0 16 16">
  <g id="vuesax_outline_category" data-name="vuesax/outline/category" transform="translate(-108 -190)">
    <g id="category" transform="translate(108 190)">
      <path id="Vector" d="M3.833,6.333H2.5A2.254,2.254,0,0,1,0,3.833V2.5A2.254,2.254,0,0,1,2.5,0H3.833a2.254,2.254,0,0,1,2.5,2.5V3.833A2.254,2.254,0,0,1,3.833,6.333ZM2.5,1C1.447,1,1,1.447,1,2.5V3.833c0,1.053.447,1.5,1.5,1.5H3.833c1.053,0,1.5-.447,1.5-1.5V2.5c0-1.053-.447-1.5-1.5-1.5Z" transform="translate(0.833 0.833)" fill="#292d32"/>
      <path id="Vector-2" data-name="Vector" d="M3.833,6.333H2.5A2.254,2.254,0,0,1,0,3.833V2.5A2.254,2.254,0,0,1,2.5,0H3.833a2.254,2.254,0,0,1,2.5,2.5V3.833A2.254,2.254,0,0,1,3.833,6.333ZM2.5,1C1.447,1,1,1.447,1,2.5V3.833c0,1.053.447,1.5,1.5,1.5H3.833c1.053,0,1.5-.447,1.5-1.5V2.5c0-1.053-.447-1.5-1.5-1.5Z" transform="translate(8.833 0.833)" fill="#292d32"/>
      <path id="Vector-3" data-name="Vector" d="M3.833,6.333H2.5A2.254,2.254,0,0,1,0,3.833V2.5A2.254,2.254,0,0,1,2.5,0H3.833a2.254,2.254,0,0,1,2.5,2.5V3.833A2.254,2.254,0,0,1,3.833,6.333ZM2.5,1C1.447,1,1,1.447,1,2.5V3.833c0,1.053.447,1.5,1.5,1.5H3.833c1.053,0,1.5-.447,1.5-1.5V2.5c0-1.053-.447-1.5-1.5-1.5Z" transform="translate(8.833 8.833)" fill="#292d32"/>
      <path id="Vector-4" data-name="Vector" d="M3.833,6.333H2.5A2.254,2.254,0,0,1,0,3.833V2.5A2.254,2.254,0,0,1,2.5,0H3.833a2.254,2.254,0,0,1,2.5,2.5V3.833A2.254,2.254,0,0,1,3.833,6.333ZM2.5,1C1.447,1,1,1.447,1,2.5V3.833c0,1.053.447,1.5,1.5,1.5H3.833c1.053,0,1.5-.447,1.5-1.5V2.5c0-1.053-.447-1.5-1.5-1.5Z" transform="translate(0.833 8.833)" fill="#292d32"/>
      <path id="Vector-5" data-name="Vector" d="M0,0H16V16H0Z" fill="none" opacity="0"/>
    </g>
  </g>
</svg>
