<svg width="23" height="29" viewBox="0 0 23 29" fill="none" xmlns="http://www.w3.org/2000/svg">
<path d="M3.06742 0.930044H2.95042V0.988045V1.10504H17.3634C17.5464 1.10504 17.7224 1.17805 17.8514 1.30704L21.4844 4.94004C21.6134 5.06904 21.6864 5.24504 21.6864 5.42804V25.912C21.6864 26.412 21.4844 26.861 21.1574 27.19C20.8294 27.517 20.3784 27.719 19.8784 27.719H3.06742C2.56742 27.719 2.11742 27.517 1.78942 27.19C1.46242 26.863 1.26042 26.412 1.26042 25.912V2.91404C1.26042 2.41404 1.46242 1.96404 1.78942 1.63604C2.11642 1.30904 2.56742 1.10604 3.06742 1.10604H3.18442V0.931044V0.873045V0.756044H3.06742C1.87542 0.756044 0.909424 1.72204 0.909424 2.91404V25.913C0.909424 27.104 1.87542 28.071 3.06742 28.071H19.8784C21.0704 28.071 22.0364 27.104 22.0364 25.913V5.42904C22.0364 5.15405 21.9264 4.88804 21.7314 4.69304L18.0994 1.06104C17.9044 0.866045 17.6394 0.756044 17.3634 0.756044H2.95042V0.930044H3.06742L3.18442 0.931044V0.873045H3.06742V0.990044H17.3634C17.5774 0.990044 17.7824 1.07504 17.9334 1.22604L21.5654 4.85804C21.7174 5.01004 21.8014 5.21404 21.8014 5.42804V25.912C21.8014 26.443 21.5864 26.923 21.2384 27.272C20.8904 27.62 20.4104 27.835 19.8784 27.835H3.06742C2.53542 27.835 2.05542 27.62 1.70742 27.272C1.35942 26.923 1.14442 26.443 1.14442 25.912V2.91404C1.14442 2.38204 1.35942 1.90204 1.70742 1.55404C2.05542 1.20605 2.53542 0.991045 3.06742 0.991045V0.873045L2.95042 0.874044V0.932045V0.991045H3.06742V0.873045C2.50442 0.873045 1.99342 1.10304 1.62442 1.47204C1.25542 1.84104 1.02642 2.35205 1.02642 2.91504V25.914C1.02642 26.477 1.25542 26.988 1.62442 27.357C1.99342 27.726 2.50442 27.955 3.06742 27.955H19.8784C20.4414 27.955 20.9524 27.726 21.3214 27.357C21.6904 26.988 21.9194 26.477 21.9194 25.914V5.43004C21.9194 5.18504 21.8224 4.95004 21.6484 4.77704L18.0164 1.14504C17.8434 0.972044 17.6084 0.874044 17.3634 0.874044L3.06742 0.873045V0.991045H3.18442V0.932045H3.06742V0.930044Z" fill="black"/>
<path d="M16.8457 26.4932H16.9627V26.4362V26.3192H5.29967C4.77067 26.3192 4.29167 26.0992 3.94367 25.7432C3.59567 25.3872 3.38067 24.8952 3.38067 24.3502V11.5172C3.38067 10.9722 3.59567 10.4812 3.94367 10.1242C4.29167 9.76821 4.76967 9.54821 5.29967 9.54821H16.8457C17.3747 9.54821 17.8537 9.76821 18.2017 10.1242C18.5507 10.4812 18.7657 10.9732 18.7657 11.5172V24.3502C18.7657 24.8952 18.5507 25.3872 18.2017 25.7432C17.8537 26.0992 17.3757 26.3192 16.8457 26.3192H16.7287V26.4932V26.5502V26.6672H16.8457C17.4717 26.6672 18.0397 26.4072 18.4487 25.9872C18.8577 25.5682 19.1107 24.9882 19.1107 24.3492V11.5172C19.1107 10.8782 18.8577 10.2992 18.4487 9.87921C18.0397 9.46021 17.4717 9.19921 16.8457 9.19921H5.29967C4.67367 9.19921 4.10567 9.46021 3.69667 9.87921C3.28867 10.2992 3.03467 10.8782 3.03467 11.5172V24.3502C3.03467 24.9892 3.28867 25.5692 3.69667 25.9882C4.10567 26.4082 4.67367 26.6682 5.29967 26.6682H16.9627V26.4942H16.8457H16.7287V26.5512H16.8457V26.4352H5.29967C4.73967 26.4352 4.23367 26.2022 3.86367 25.8252C3.49567 25.4472 3.26867 24.9262 3.26867 24.3502V11.5172C3.26867 10.9402 3.49567 10.4202 3.86367 10.0432C4.23267 9.66521 4.73967 9.43321 5.29967 9.43321H16.8457C17.4067 9.43321 17.9127 9.66521 18.2817 10.0432C18.6497 10.4202 18.8777 10.9412 18.8777 11.5172V24.3502C18.8777 24.9272 18.6497 25.4472 18.2817 25.8252C17.9137 26.2022 17.4067 26.4352 16.8457 26.4352V26.5512H16.9627V26.4942V26.4362L16.8457 26.4372V26.5542C17.4407 26.5542 17.9797 26.3062 18.3697 25.9082C18.7587 25.5092 18.9987 24.9592 18.9987 24.3512V11.5172C18.9987 10.9102 18.7587 10.3592 18.3697 9.96121C17.9797 9.56221 17.4417 9.31521 16.8457 9.31521H5.29967C4.70567 9.31521 4.16567 9.56221 3.77667 9.96121C3.38767 10.3592 3.14667 10.9102 3.14667 11.5172V24.3502C3.14667 24.9582 3.38767 25.5082 3.77667 25.9062C4.16567 26.3052 4.70467 26.5532 5.29967 26.5532H16.8457V26.4372L16.7287 26.4362V26.4932H16.8457Z" fill="black"/>
<path d="M3.20654 14.8669H19.0535V14.5179H3.20654V14.7509H18.9375V14.6349H18.8205V14.7499H18.9375V14.6329H3.20654V14.8669Z" fill="black"/>
<path d="M3.20654 21.4822H19.0535V21.1332H3.20654V21.3662H18.9375V21.2502H18.8205V21.3652H18.9375V21.2482H3.20654V21.4822Z" fill="black"/>
<path d="M7.32178 9.37506V14.8101H7.66778V9.37506H7.43378V14.6931H7.55078V14.5761H7.43878V14.6931H7.55578V9.37506H7.32178Z" fill="black"/>
<path d="M10.9312 9.37506V14.8101H11.2782V9.37506H11.0442V14.6931H11.1612V14.5761H11.0482V14.6931H11.1652V9.37506H10.9312Z" fill="black"/>
<path d="M14.5542 9.37506V14.8101H14.9002V9.37506H14.6662V14.6931H14.7832V14.5761H14.6712V14.6931H14.7882V9.37506H14.5542Z" fill="black"/>
<path d="M12.8491 14.6915V21.4235H13.1951V14.6915H12.9611V21.3065H13.0781V21.1895H12.9661V21.3065H13.0831V14.6915H12.8491Z" fill="black"/>
<path d="M9.13037 14.6915V21.4235H9.47737V14.6915H9.24337V21.3065H9.36037V21.1895H9.24737V21.3065H9.36437V14.6915H9.13037Z" fill="black"/>
<path d="M7.32178 21.3069V26.6099H7.66778V21.3069H7.43378V26.4929H7.55078V26.3759H7.43878V26.4929H7.55578V21.3069H7.32178Z" fill="black"/>
<path d="M10.8999 21.3069V26.6099H11.2459V21.3069H11.0119V26.4929H11.1289V26.3759H11.0169V26.4929H11.1339V21.3069H10.8999Z" fill="black"/>
</svg>
