<svg width="19" height="18" viewBox="0 0 19 18" fill="none" xmlns="http://www.w3.org/2000/svg">
<path d="M17.8926 5.30808H17.4925V16.3118H1.54984V5.7089H5.55764V1.42731H13.7432V5.7089H17.8926V5.30808H17.4925H17.8926V4.90723H14.5433V0.62561H4.76104V4.90723H0.749695V17.11H18.2926V4.90723H17.8926V5.30808Z" fill="black"/>
<path d="M8.79274 10.2675V9.86661H5.79397V7.25934H8.39621V10.2675H8.79274V9.86661V10.2675H9.19281V6.45764H4.99384V10.6648H9.19281V10.2675H8.79274Z" fill="black"/>
<path d="M14.0252 10.2675V9.86661H11.0229V7.25934H13.6251V10.2675H14.0252V9.86661V10.2675H14.4252V6.45764H10.2263V10.6648H14.4252V10.2675H14.0252Z" fill="black"/>
<path d="M8.79274 14.9455V14.5483H5.79397V11.941H8.39621V14.9455H8.79274V14.5483V14.9455H9.19281V11.1393H4.99384V15.3464H9.19281V14.9455H8.79274Z" fill="black"/>
<path d="M14.0252 14.9455V14.5483H11.0229V11.941H13.6251V14.9455H14.0252V14.5483V14.9455H14.4252V11.1393H10.2263V15.3464H14.4252V14.9455H14.0252Z" fill="black"/>
</svg>
