<svg width="55" height="25" viewBox="0 0 55 25" fill="none" xmlns="http://www.w3.org/2000/svg">
<path d="M51.3134 12.1683H50.9119C50.9119 12.868 50.6287 13.5028 50.1733 13.9608C49.7144 14.4189 49.087 14.7038 48.3915 14.7038C47.696 14.7038 47.065 14.4189 46.6097 13.9608C46.1544 13.4992 45.8711 12.868 45.8711 12.1683C45.8711 11.4686 46.1544 10.8338 46.6097 10.3757C47.0686 9.91769 47.696 9.63276 48.3915 9.63276C49.087 9.63276 49.718 9.91769 50.1733 10.3757C50.6287 10.8374 50.9119 11.4686 50.9119 12.1683H51.3134H51.715C51.715 10.3216 50.2271 8.82483 48.3915 8.82483C46.5559 8.82483 45.0681 10.3216 45.0681 12.1683C45.0681 14.0149 46.5559 15.5117 48.3915 15.5117C50.2271 15.5117 51.715 14.0149 51.715 12.1683H51.3134Z" fill="black"/>
<path d="M46.5251 9.88098L49.6513 14.8438L50.3254 14.411L47.2027 9.45178" fill="black"/>
<path d="M10.3505 12.1683H9.949C9.949 12.868 9.66577 13.5028 9.21045 13.9608C8.75155 14.4189 8.12413 14.7038 7.42861 14.7038C6.73308 14.7038 6.1021 14.4189 5.64678 13.9608C5.19147 13.4992 4.90824 12.868 4.90824 12.1683C4.90824 11.4686 5.19147 10.8338 5.64678 10.3757C6.10569 9.91769 6.73308 9.63276 7.42861 9.63276C8.12413 9.63276 8.75513 9.91769 9.21045 10.3757C9.66577 10.8374 9.949 11.4686 9.949 12.1683H10.3505H10.7521C10.7521 10.3216 9.26422 8.82483 7.42861 8.82483C5.593 8.82483 4.10516 10.3216 4.10516 12.1683C4.10516 14.0149 5.593 15.5117 7.42861 15.5117C9.26422 15.5117 10.7521 14.0149 10.7521 12.1683H10.3505Z" fill="black"/>
<path d="M5.56024 9.88098L8.6865 14.8438L9.36052 14.411L6.23782 9.45178" fill="black"/>
<path d="M36.5077 18.729H19.1877C17.7573 18.729 16.5992 17.5641 16.5992 16.125L15.3337 8.2082C15.3337 6.76911 16.4917 5.60413 17.9222 5.60413H37.698C39.1285 5.60413 40.2865 6.76911 40.2865 8.2082L39.0962 16.125C39.0962 17.5641 37.9382 18.729 36.5077 18.729Z" stroke="black" stroke-miterlimit="10"/>
<path d="M19.6856 10.1382C20.141 10.1382 20.5102 9.76682 20.5102 9.30867C20.5102 8.85052 20.141 8.47913 19.6856 8.47913C19.2302 8.47913 18.861 8.85052 18.861 9.30867C18.861 9.76682 19.2302 10.1382 19.6856 10.1382Z" fill="black"/>
<path d="M23.7227 10.1382C24.1781 10.1382 24.5473 9.76682 24.5473 9.30867C24.5473 8.85052 24.1781 8.47913 23.7227 8.47913C23.2673 8.47913 22.8981 8.85052 22.8981 9.30867C22.8981 9.76682 23.2673 10.1382 23.7227 10.1382Z" fill="black"/>
<path d="M27.8145 10.1382C28.2699 10.1382 28.6391 9.76682 28.6391 9.30867C28.6391 8.85052 28.2699 8.47913 27.8145 8.47913C27.3591 8.47913 26.9899 8.85052 26.9899 9.30867C26.9899 9.76682 27.3591 10.1382 27.8145 10.1382Z" fill="black"/>
<path d="M31.5391 10.1382C31.9945 10.1382 32.3637 9.76682 32.3637 9.30867C32.3637 8.85052 31.9945 8.47913 31.5391 8.47913C31.0837 8.47913 30.7145 8.85052 30.7145 9.30867C30.7145 9.76682 31.0837 10.1382 31.5391 10.1382Z" fill="black"/>
<path d="M35.6036 10.1382C36.059 10.1382 36.4282 9.76682 36.4282 9.30867C36.4282 8.85052 36.059 8.47913 35.6036 8.47913C35.1482 8.47913 34.779 8.85052 34.779 9.30867C34.779 9.76682 35.1482 10.1382 35.6036 10.1382Z" fill="black"/>
<path d="M19.6856 14.4546C20.141 14.4546 20.5102 14.0832 20.5102 13.6251C20.5102 13.1669 20.141 12.7955 19.6856 12.7955C19.2302 12.7955 18.861 13.1669 18.861 13.6251C18.861 14.0832 19.2302 14.4546 19.6856 14.4546Z" fill="black"/>
<path d="M23.7227 14.4546C24.1781 14.4546 24.5473 14.0832 24.5473 13.6251C24.5473 13.1669 24.1781 12.7955 23.7227 12.7955C23.2673 12.7955 22.8981 13.1669 22.8981 13.6251C22.8981 14.0832 23.2673 14.4546 23.7227 14.4546Z" fill="black"/>
<path d="M27.8145 14.4546C28.2699 14.4546 28.6391 14.0832 28.6391 13.6251C28.6391 13.1669 28.2699 12.7955 27.8145 12.7955C27.3591 12.7955 26.9899 13.1669 26.9899 13.6251C26.9899 14.0832 27.3591 14.4546 27.8145 14.4546Z" fill="black"/>
<path d="M31.5391 14.4546C31.9945 14.4546 32.3637 14.0832 32.3637 13.6251C32.3637 13.1669 31.9945 12.7955 31.5391 12.7955C31.0837 12.7955 30.7145 13.1669 30.7145 13.6251C30.7145 14.0832 31.0837 14.4546 31.5391 14.4546Z" fill="black"/>
<path d="M35.6036 14.4546C36.059 14.4546 36.4282 14.0832 36.4282 13.6251C36.4282 13.1669 36.059 12.7955 35.6036 12.7955C35.1482 12.7955 34.779 13.1669 34.779 13.6251C34.779 14.0832 35.1482 14.4546 35.6036 14.4546Z" fill="black"/>
<path d="M54.4414 7.61317H54.0471V16.6841C54.0471 17.0484 53.918 17.373 53.7208 17.6002C53.52 17.8274 53.2655 17.9537 52.9894 17.9537H44.4244C43.8974 17.9537 43.4242 18.2025 43.0979 18.5776C42.7681 18.9564 42.5745 19.4649 42.5745 20.0203V22.0581C42.5745 22.4224 42.4454 22.747 42.2482 22.9743C42.0475 23.2015 41.7929 23.3277 41.5169 23.3277H14.2803C14.0042 23.3277 13.7497 23.2015 13.5489 22.9743C13.3517 22.747 13.2191 22.4224 13.2227 22.0581V20.0203C13.2227 19.4649 13.0255 18.9564 12.6992 18.5776C12.373 18.2025 11.8997 17.9537 11.3727 17.9537H2.49224C2.21618 17.9537 1.96162 17.8274 1.76085 17.6002C1.56366 17.373 1.43102 17.0484 1.4346 16.6841V7.61317C1.4346 7.24889 1.56366 6.9243 1.76085 6.69707C1.96162 6.46985 2.21618 6.3436 2.49224 6.3436H11.3727C11.8997 6.3436 12.373 6.09474 12.6992 5.71964C13.0291 5.34093 13.2227 4.83238 13.2227 4.27695V2.23916C13.2227 1.87488 13.3517 1.55026 13.5489 1.32303C13.7497 1.09581 14.0042 0.969581 14.2803 0.969581H41.5097C41.7857 0.969581 42.0403 1.09581 42.2411 1.32303C42.4383 1.55026 42.5709 1.87488 42.5673 2.23916V4.27695C42.5673 4.83238 42.7645 5.34093 43.0908 5.71964C43.417 6.09474 43.8903 6.3436 44.4173 6.3436H52.9822C53.2583 6.3436 53.5129 6.46985 53.7136 6.69707C53.9108 6.9243 54.0435 7.24889 54.0399 7.61317H54.4414H54.8358C54.8358 7.05774 54.6386 6.54919 54.3124 6.17048C53.9861 5.79538 53.5129 5.54652 52.9858 5.54652H44.4208C44.1448 5.54652 43.8902 5.4203 43.6895 5.19307C43.4923 4.96585 43.3597 4.64123 43.3632 4.27695V2.23916C43.3632 1.68372 43.166 1.17517 42.8398 0.796465C42.5135 0.421365 42.0403 0.172485 41.5133 0.172485H14.2803C13.7533 0.172485 13.28 0.421365 12.9538 0.796465C12.6239 1.17517 12.4303 1.68372 12.4303 2.23916V4.27695C12.4303 4.64123 12.3013 4.96585 12.1041 5.19307C11.9033 5.4203 11.6488 5.54652 11.3727 5.54652H2.49224C1.96521 5.54652 1.49197 5.79538 1.16572 6.17048C0.83588 6.54919 0.642273 7.05774 0.642273 7.61317V16.6841C0.642273 17.2395 0.839465 17.7481 1.16572 18.1268C1.49197 18.5019 1.96521 18.7508 2.49224 18.7508H11.3727C11.6488 18.7508 11.9033 18.877 12.1041 19.1042C12.3013 19.3314 12.4339 19.6561 12.4303 20.0203V22.0581C12.4303 22.6136 12.6275 23.1221 12.9538 23.5008C13.28 23.8759 13.7533 24.1248 14.2803 24.1248H41.5097C42.0367 24.1248 42.51 23.8759 42.8362 23.5008C43.166 23.1221 43.3596 22.6136 43.3596 22.0581V20.0203C43.3596 19.6561 43.4887 19.3314 43.6859 19.1042C43.8867 18.877 44.1412 18.7508 44.4173 18.7508H52.9822C53.5093 18.7508 53.9825 18.5019 54.3088 18.1268C54.6386 17.7481 54.8322 17.2395 54.8322 16.6841V7.61317H54.4414Z" fill="black"/>
</svg>
