<svg width="40" height="17" viewBox="0 0 40 17" fill="none" xmlns="http://www.w3.org/2000/svg">
<path d="M0.81939 13.0255V3.22293H8.78186V0.834395H30.3237V3.22293H39.1744V13.0255H30.3237V14.8981H8.78186V13.0255H0.81939ZM31.1431 0H7.96247V2.38854H0V13.8599H7.96247V15.7325H31.1431V13.8599H39.9937V2.38854H31.1431V0Z" fill="#0A0A0A"/>
<path d="M5.67313 5.38855C3.95929 5.38855 2.56445 6.80893 2.56445 8.55415C2.56445 10.2994 3.95929 11.7198 5.67313 11.7198C7.38697 11.7198 8.78181 10.2994 8.78181 8.55415H8.19385C8.19385 9.26116 7.91238 9.8981 7.45577 10.3631C6.99917 10.828 6.37368 11.1147 5.67939 11.1147C4.98509 11.1147 4.35961 10.828 3.903 10.3631C3.44639 9.8981 3.16492 9.26116 3.16492 8.55415C3.16492 7.84715 3.44639 7.21021 3.903 6.74524C4.35961 6.28027 4.98509 5.99365 5.67939 5.99365C6.37368 5.99365 6.99917 6.28027 7.45577 6.74524C7.91238 7.21021 8.19385 7.84715 8.19385 8.55415H8.78181C8.78181 6.80893 7.38697 5.38855 5.67313 5.38855Z" fill="#0A0A0A"/>
<path d="M34.0767 5.38855C32.3629 5.38855 30.968 6.80893 30.968 8.55415C30.968 10.2994 32.3629 11.7198 34.0767 11.7198C35.7905 11.7198 37.1854 10.2994 37.1854 8.55415H36.5974C36.5974 9.26116 36.3159 9.8981 35.8593 10.3631C35.4027 10.828 34.7772 11.1147 34.083 11.1147C33.3887 11.1147 32.7632 10.828 32.3066 10.3631C31.85 9.8981 31.5685 9.26116 31.5685 8.55415C31.5685 7.84715 31.85 7.21021 32.3066 6.74524C32.7632 6.28027 33.3887 5.99365 34.083 5.99365C34.7772 5.99365 35.4027 6.28027 35.8593 6.74524C36.3159 7.21021 36.5974 7.84715 36.5974 8.55415H37.1854C37.1854 6.80893 35.7905 5.38855 34.0767 5.38855Z" fill="#0A0A0A"/>
<path d="M10.6334 2.5605H15.6623V3.15922H14.4363V4.77706H15.6623V12.6115H10.6334V4.88534H11.8093V3.19107H10.6334V2.5605ZM16.244 1.96814H10.0454V2.43311V3.7898H11.2213V4.29298H10.0454V13.2165H16.244V4.19107H15.018V3.76432H16.244V1.96814Z" fill="#0A0A0A"/>
<path d="M24.3629 2.5605H29.3918V3.15922H28.1658V4.77706H29.3918V12.6115H24.3629V4.88534H25.5388V3.19107H24.3629V2.5605ZM29.9735 1.96814H23.7749V2.43311V3.7898H24.9508V4.29298H23.7749V13.2165H29.9735V4.19107H28.7475V3.76432H29.9735V1.96814Z" fill="#0A0A0A"/>
<path d="M17.4261 2.5605H22.4613V3.15922H21.2353V4.77706H22.4613V12.6115H17.4261V4.88534H18.602V3.19107H17.4261V2.5605ZM23.043 1.96814H16.8381V2.43311V3.7898H18.0141V4.29298H16.8381V13.2165H23.043V4.19107H21.817V3.76432H23.043V1.96814Z" fill="#0A0A0A"/>
</svg>
