<svg width="35" height="16" viewBox="0 0 35 16" fill="none" xmlns="http://www.w3.org/2000/svg">
<g clip-path="url(#clip0_15_9)">
<path opacity="0.97" d="M34.1134 3.16953H33.7034V13.1495H24.9034V14.9795H9.61336V13.1495H1.69336V3.57954H9.61336V1.23953H24.9034V3.57954H34.1134V3.16953H33.7034H34.1134V2.75953H25.7134V0.429535H8.80336V2.75953H0.883362V13.9595H8.80336V15.7895H25.7134V13.9595H34.5234V2.75953H34.1134V3.16953Z" fill="#010101"/>
<path opacity="0.97" d="M8.18334 8.77954H7.89334C7.89334 9.46954 7.61334 10.0995 7.16334 10.5495C6.71334 10.9995 6.08334 11.2795 5.39334 11.2795C4.70334 11.2795 4.07333 10.9995 3.62334 10.5495C3.17334 10.0995 2.89333 9.46954 2.89333 8.77954C2.89333 8.08954 3.17334 7.45954 3.62334 7.00954C4.07333 6.55954 4.70334 6.27954 5.39334 6.27954C6.08334 6.27954 6.71334 6.55954 7.16334 7.00954C7.61334 7.45954 7.89334 8.08954 7.89334 8.77954H8.47334C8.47334 7.07954 7.09334 5.68954 5.38334 5.68954C3.67334 5.68954 2.29333 7.06954 2.29333 8.77954C2.29333 10.4895 3.67334 11.8695 5.38334 11.8695C7.09334 11.8695 8.47334 10.4895 8.47334 8.77954H8.18334Z" fill="#010101"/>
<path opacity="0.97" d="M31.4333 8.77954H31.1433C31.1433 9.46954 30.8633 10.0995 30.4133 10.5495C29.9633 10.9995 29.3333 11.2795 28.6433 11.2795C27.9533 11.2795 27.3233 10.9995 26.8733 10.5495C26.4233 10.0995 26.1433 9.46954 26.1433 8.77954C26.1433 8.08954 26.4233 7.45954 26.8733 7.00954C27.3233 6.55954 27.9533 6.27954 28.6433 6.27954C29.3333 6.27954 29.9633 6.55954 30.4133 7.00954C30.8633 7.45954 31.1433 8.08954 31.1433 8.77954H31.7233C31.7233 7.07954 30.3433 5.68954 28.6333 5.68954C26.9233 5.68954 25.5433 7.06954 25.5433 8.77954C25.5433 10.4895 26.9233 11.8695 28.6333 11.8695C30.3433 11.8695 31.7233 10.4895 31.7233 8.77954H31.4333Z" fill="#010101"/>
<path opacity="0.97" d="M17.7034 2.79955H17.4134V4.12955H18.5834V4.61955H17.4134V13.3395H23.5734V4.51955H22.3634V4.09955H23.5734V2.34955H17.4134V2.79955H17.7034H17.9934V2.63955H17.7034V2.92955H22.9934V3.51955H21.7834V5.09955H22.9934V12.7495H17.9934V5.19955H19.1634V3.54955H17.9934V2.79955H17.7034Z" fill="#010101"/>
<path opacity="0.97" d="M10.8134 2.79955H10.5234V4.12955H11.6934V4.61955H10.5234V13.3395H16.6834V4.51955H15.4634V4.09955H16.6834V2.34955H10.5234V2.79955H10.8134H11.1034V2.63955H10.8134V2.92955H16.1034V3.51955H14.8834V5.09955H16.1034V12.7495H11.1034V5.19955H12.2734V3.54955H11.1034V2.79955H10.8134Z" fill="#010101"/>
</g>
<defs>
<clipPath id="clip0_15_9">
<rect width="33.64" height="15.36" fill="white" transform="translate(0.883362 0.429535)"/>
</clipPath>
</defs>
</svg>
