<svg width="29" height="13" viewBox="0 0 29 13" fill="none" xmlns="http://www.w3.org/2000/svg">
<path d="M27.4404 11.9336V11.4438H2.16482C1.90474 11.4438 1.69233 11.2314 1.69233 10.9713V1.97251C1.69233 1.71242 1.90474 1.50004 2.16482 1.50004H27.4404C27.7004 1.50004 27.9128 1.71242 27.9128 1.97251V10.9713C27.9128 11.2314 27.7004 11.4438 27.4404 11.4438V11.9336V12.4234C28.2423 12.4234 28.8925 11.7732 28.8968 10.967V1.96817C28.8968 1.16625 28.2466 0.516053 27.4404 0.511719H2.16482C1.36291 0.511719 0.712709 1.16192 0.708374 1.96817V10.967C0.708374 11.7689 1.35857 12.4191 2.16482 12.4234H27.4404V11.9336Z" fill="black"/>
<rect x="2.76697" y="2.94727" width="24" height="4" rx="1" fill="black"/>
</svg>
