<svg width="30" height="25" viewBox="0 0 30 25" fill="none" xmlns="http://www.w3.org/2000/svg">
<path d="M29.453 24.2708V23.9834H0.570008V0.571113H29.1698V24.2708H29.453V23.9834V24.2708H29.7398V0H0V24.5545H29.7398V24.2708H29.453Z" fill="#221F1F"/>
<path d="M25.4692 1.29102H4.26897C4.06717 1.29102 3.9043 1.4542 3.9043 1.6564V22.8978C3.9043 23.1 4.06717 23.2631 4.26897 23.2631H25.4692C25.671 23.2631 25.8339 23.1 25.8339 22.8978V1.6564C25.8339 1.4542 25.671 1.29102 25.4692 1.29102ZM25.1045 22.5324H4.63363V2.02176H25.1045V22.5324Z" fill="black"/>
<path d="M5.73186 4.95165H10.1185C10.3203 4.95165 10.4831 4.78849 10.4831 4.58629V3.12124C10.4831 2.91905 10.3203 2.75586 10.1185 2.75586H5.73186C5.53006 2.75586 5.36719 2.91905 5.36719 3.12124V4.58629C5.36719 4.78849 5.53006 4.95165 5.73186 4.95165ZM6.09652 3.48661H9.75027V4.21735H6.09652V3.48661Z" fill="black"/>
<path d="M19.6205 4.95165H24.0071C24.209 4.95165 24.3718 4.78849 24.3718 4.58629V3.12124C24.3718 2.91905 24.209 2.75586 24.0071 2.75586H19.6205C19.4187 2.75586 19.2559 2.91905 19.2559 3.12124V4.58629C19.2559 4.78849 19.4187 4.95165 19.6205 4.95165ZM19.9852 3.48661H23.6389V4.21735H19.9852V3.48661Z" fill="black"/>
<path d="M6.0957 6.4167V20.6982C6.0957 20.9004 6.25857 21.0636 6.46038 21.0636H23.274C23.4758 21.0636 23.6387 20.9004 23.6387 20.6982V6.4167C23.6387 6.2145 23.4758 6.05133 23.274 6.05133H18.8874V4.58629C18.8874 4.38409 18.7245 4.2209 18.5227 4.2209H17.7934V3.12124C17.7934 2.91905 17.6305 2.75586 17.4287 2.75586H12.3127C12.1109 2.75586 11.9481 2.91905 11.9481 3.12124V4.2209H11.2188C11.0169 4.2209 10.8541 4.38409 10.8541 4.58629V6.05133H6.46747C6.25858 6.05133 6.0957 6.2145 6.0957 6.4167ZM11.5799 4.95165H12.3092C12.511 4.95165 12.6739 4.78849 12.6739 4.58629V3.48661H17.0605V4.58629C17.0605 4.78849 17.2234 4.95165 17.4252 4.95165H18.1545V10.8118H11.5763V4.95165H11.5799ZM6.82858 6.78563H10.8505V11.1807C10.8505 11.3829 11.0134 11.5461 11.2152 11.5461H18.5263C18.7281 11.5461 18.8909 11.3829 18.8909 11.1807V6.78563H22.9129V14.1108H6.82858V6.78563ZM6.82858 14.8416H22.9129V20.3364H21.8153V16.3066C21.8153 16.1044 21.6525 15.9413 21.4507 15.9413C21.2488 15.9413 21.086 16.1044 21.086 16.3066V20.3364H19.9885V16.3066C19.9885 16.1044 19.8256 15.9413 19.6238 15.9413C19.422 15.9413 19.2591 16.1044 19.2591 16.3066V20.3364H18.1616V16.3066C18.1616 16.1044 17.9987 15.9413 17.7969 15.9413C17.5951 15.9413 17.4322 16.1044 17.4322 16.3066V20.3364H16.3347V16.3066C16.3347 16.1044 16.1718 15.9413 15.97 15.9413C15.7682 15.9413 15.6054 16.1044 15.6054 16.3066V20.3364H14.1432V16.3066C14.1432 16.1044 13.9803 15.9413 13.7785 15.9413C13.5767 15.9413 13.4138 16.1044 13.4138 16.3066V20.3364H12.3163V16.3066C12.3163 16.1044 12.1534 15.9413 11.9516 15.9413C11.7498 15.9413 11.587 16.1044 11.587 16.3066V20.3364H10.4894V16.3066C10.4894 16.1044 10.3265 15.9413 10.1247 15.9413C9.92294 15.9413 9.76009 16.1044 9.76009 16.3066V20.3364H8.66253V16.3066C8.66253 16.1044 8.49968 15.9413 8.29788 15.9413C8.09607 15.9413 7.9332 16.1044 7.9332 16.3066V20.3364H6.83567V14.8416H6.82858Z" fill="black"/>
</svg>
