<svg width="114" height="33" viewBox="0 0 114 33" fill="none" xmlns="http://www.w3.org/2000/svg">
<path d="M35.5733 3.55754H40.4765V4.12105H39.2812V5.64372H40.4765V13.0173H35.5733V5.74563H36.7198V4.15102H35.5733V3.55754ZM41.0436 3.00003H35V3.43765V4.71453H36.1465V5.18812H35V13.5868H41.0436V5.0922H39.8483V4.69055H41.0436V3.00003Z" fill="#0A0A0A"/>
<path d="M35.5733 18.5575H40.4765V19.121H39.2812V20.6437H40.4765V28.0173H35.5733V20.7456H36.7198V19.151H35.5733V18.5575ZM41.0436 18H35V18.4376V19.7145H36.1465V20.1881H35V28.5868H41.0436V20.0922H39.8483V19.6906H41.0436V18Z" fill="#0A0A0A"/>
<path d="M49.5733 3.55754H54.4765V4.12105H53.2812V5.64372H54.4765V13.0173H49.5733V5.74563H50.7198V4.15102H49.5733V3.55754ZM55.0436 3.00003H49V3.43765V4.71453H50.1465V5.18812H49V13.5868H55.0436V5.0922H53.8483V4.69055H55.0436V3.00003Z" fill="#0A0A0A"/>
<path d="M49.5733 18.5575H54.4765V19.121H53.2812V20.6437H54.4765V28.0173H49.5733V20.7456H50.7198V19.151H49.5733V18.5575ZM55.0436 18H49V18.4376V19.7145H50.1465V20.1881H49V28.5868H55.0436V20.0922H53.8483V19.6906H55.0436V18Z" fill="#0A0A0A"/>
<path d="M42.5733 3.55754H47.4826V4.12105H46.2873V5.64372H47.4826V13.0173H42.5733V5.74563H43.7198V4.15102H42.5733V3.55754ZM48.0497 3.00003H42V3.43765V4.71453H43.1465V5.18812H42V13.5868H48.0497V5.0922H46.8544V4.69055H48.0497V3.00003Z" fill="#0A0A0A"/>
<path d="M42.5733 18.5575H47.4826V19.121H46.2873V20.6437H47.4826V28.0173H42.5733V20.7456H43.7198V19.151H42.5733V18.5575ZM48.0497 18H42V18.4376V19.7145H43.1465V20.1881H42V28.5868H48.0497V20.0922H46.8544V19.6906H48.0497V18Z" fill="#0A0A0A"/>
<path d="M14.5733 3.55754H19.4765V4.12105H18.2812V5.64372H19.4765V13.0173H14.5733V5.74563H15.7198V4.15102H14.5733V3.55754ZM20.0436 3.00003H14V3.43765V4.71453H15.1465V5.18812H14V13.5868H20.0436V5.0922H18.8483V4.69055H20.0436V3.00003Z" fill="#0A0A0A"/>
<path d="M14.5733 18.5575H19.4765V19.121H18.2812V20.6437H19.4765V28.0173H14.5733V20.7456H15.7198V19.151H14.5733V18.5575ZM20.0436 18H14V18.4376V19.7145H15.1465V20.1881H14V28.5868H20.0436V20.0922H18.8483V19.6906H20.0436V18Z" fill="#0A0A0A"/>
<path d="M56.5733 3.55754H61.4765V4.12105H60.2812V5.64372H61.4765V13.0173H56.5733V5.74563H57.7198V4.15102H56.5733V3.55754ZM62.0436 3.00003H56V3.43765V4.71453H57.1465V5.18812H56V13.5868H62.0436V5.0922H60.8483V4.69055H62.0436V3.00003Z" fill="#0A0A0A"/>
<path d="M56.5733 18.5575H61.4765V19.121H60.2812V20.6437H61.4765V28.0173H56.5733V20.7456H57.7198V19.151H56.5733V18.5575ZM62.0436 18H56V18.4376V19.7145H57.1465V20.1881H56V28.5868H62.0436V20.0922H60.8483V19.6906H62.0436V18Z" fill="#0A0A0A"/>
<path d="M56.5733 3.55754H61.4765V4.12105H60.2812V5.64372H61.4765V13.0173H56.5733V5.74563H57.7198V4.15102H56.5733V3.55754ZM62.0436 3.00003H56V3.43765V4.71453H57.1465V5.18812H56V13.5868H62.0436V5.0922H60.8483V4.69055H62.0436V3.00003Z" fill="#0A0A0A"/>
<path d="M56.5733 18.5575H61.4765V19.121H60.2812V20.6437H61.4765V28.0173H56.5733V20.7456H57.7198V19.151H56.5733V18.5575ZM62.0436 18H56V18.4376V19.7145H57.1465V20.1881H56V28.5868H62.0436V20.0922H60.8483V19.6906H62.0436V18Z" fill="#0A0A0A"/>
<path d="M77.5733 3.55751H82.4765V4.12102H81.2812V5.64369H82.4765V13.0172H77.5733V5.7456H78.7198V4.15099H77.5733V3.55751ZM83.0436 3H77V3.43762V4.7145H78.1465V5.18809H77V13.5867H83.0436V5.09217H81.8483V4.69052H83.0436V3Z" fill="#0A0A0A"/>
<path d="M77.5733 18.5575H82.4765V19.121H81.2812V20.6437H82.4765V28.0172H77.5733V20.7456H78.7198V19.151H77.5733V18.5575ZM83.0436 18H77V18.4376V19.7145H78.1465V20.1881H77V28.5867H83.0436V20.0922H81.8483V19.6905H83.0436V18Z" fill="#0A0A0A"/>
<path d="M28.5733 3.55754H33.4765V4.12105H32.2812V5.64372H33.4765V13.0173H28.5733V5.74563H29.7198V4.15102H28.5733V3.55754ZM34.0436 3.00003H28V3.43765V4.71453H29.1465V5.18812H28V13.5868H34.0436V5.0922H32.8483V4.69055H34.0436V3.00003Z" fill="#0A0A0A"/>
<path d="M28.5733 18.5575H33.4765V19.121H32.2812V20.6437H33.4765V28.0173H28.5733V20.7456H29.7198V19.151H28.5733V18.5575ZM34.0436 18H28V18.4376V19.7145H29.1465V20.1881H28V28.5868H34.0436V20.0922H32.8483V19.6906H34.0436V18Z" fill="#0A0A0A"/>
<path d="M21.5733 3.55754H26.4826V4.12105H25.2873V5.64372H26.4826V13.0173H21.5733V5.74563H22.7198V4.15102H21.5733V3.55754ZM27.0497 3.00003H21V3.43765V4.71453H22.1465V5.18812H21V13.5868H27.0497V5.0922H25.8544V4.69055H27.0497V3.00003Z" fill="#0A0A0A"/>
<path d="M21.5733 18.5575H26.4826V19.121H25.2873V20.6437H26.4826V28.0173H21.5733V20.7456H22.7198V19.151H21.5733V18.5575ZM27.0497 18H21V18.4376V19.7145H22.1465V20.1881H21V28.5868H27.0497V20.0922H25.8544V19.6906H27.0497V18Z" fill="#0A0A0A"/>
<path d="M63.5733 3.55754H68.4826V4.12105H67.2873V5.64372H68.4826V13.0173H63.5733V5.74563H64.7198V4.15102H63.5733V3.55754ZM69.0497 3.00003H63V3.43765V4.71453H64.1465V5.18812H63V13.5868H69.0497V5.0922H67.8544V4.69055H69.0497V3.00003Z" fill="#0A0A0A"/>
<path d="M63.5733 18.5575H68.4826V19.121H67.2873V20.6437H68.4826V28.0173H63.5733V20.7456H64.7198V19.151H63.5733V18.5575ZM69.0497 18H63V18.4376V19.7145H64.1465V20.1881H63V28.5868H69.0497V20.0922H67.8544V19.6906H69.0497V18Z" fill="#0A0A0A"/>
<path d="M63.5733 3.55754H68.4826V4.12105H67.2873V5.64372H68.4826V13.0173H63.5733V5.74563H64.7198V4.15102H63.5733V3.55754ZM69.0497 3.00003H63V3.43765V4.71453H64.1465V5.18812H63V13.5868H69.0497V5.0922H67.8544V4.69055H69.0497V3.00003Z" fill="#0A0A0A"/>
<path d="M63.5733 18.5575H68.4826V19.121H67.2873V20.6437H68.4826V28.0173H63.5733V20.7456H64.7198V19.151H63.5733V18.5575ZM69.0497 18H63V18.4376V19.7145H64.1465V20.1881H63V28.5868H69.0497V20.0922H67.8544V19.6906H69.0497V18Z" fill="#0A0A0A"/>
<path d="M91.5733 3.55751H96.4826V4.12102H95.2873V5.64369H96.4826V13.0172H91.5733V5.7456H92.7198V4.15099H91.5733V3.55751ZM97.0497 3H91V3.43762V4.7145H92.1465V5.18809H91V13.5867H97.0497V5.09217H95.8544V4.69052H97.0497V3Z" fill="#0A0A0A"/>
<path d="M91.5733 18.5575H96.4826V19.121H95.2873V20.6437H96.4826V28.0172H91.5733V20.7456H92.7198V19.151H91.5733V18.5575ZM97.0497 18H91V18.4376V19.7145H92.1465V20.1881H91V28.5867H97.0497V20.0922H95.8544V19.6905H97.0497V18Z" fill="#0A0A0A"/>
<path d="M70.5733 3.55754H75.4826V4.12105H74.2873V5.64372H75.4826V13.0173H70.5733V5.74563H71.7198V4.15102H70.5733V3.55754ZM76.0497 3.00003H70V3.43765V4.71453H71.1465V5.18812H70V13.5868H76.0497V5.0922H74.8544V4.69055H76.0497V3.00003Z" fill="#0A0A0A"/>
<path d="M70.5733 18.5575H75.4826V19.121H74.2873V20.6437H75.4826V28.0173H70.5733V20.7456H71.7198V19.151H70.5733V18.5575ZM76.0497 18H70V18.4376V19.7145H71.1465V20.1881H70V28.5868H76.0497V20.0922H74.8544V19.6906H76.0497V18Z" fill="#0A0A0A"/>
<path d="M84.5733 3.55751H89.4826V4.12102H88.2873V5.64369H89.4826V13.0172H84.5733V5.7456H85.7198V4.15099H84.5733V3.55751ZM90.0497 3H84V3.43762V4.7145H85.1465V5.18809H84V13.5867H90.0497V5.09217H88.8544V4.69052H90.0497V3Z" fill="#0A0A0A"/>
<path d="M84.5733 18.5575H89.4826V19.121H88.2873V20.6437H89.4826V28.0172H84.5733V20.7456H85.7198V19.151H84.5733V18.5575ZM90.0497 18H84V18.4376V19.7145H85.1465V20.1881H84V28.5867H90.0497V20.0922H88.8544V19.6905H90.0497V18Z" fill="#0A0A0A"/>
<path d="M13 1V9.03705H1V22H13V32H101V22H113V9.03705H101V1.00002L13 1Z" stroke="black"/>
<circle cx="106" cy="15" r="3.75" stroke="black" stroke-width="0.5"/>
<circle cx="7" cy="15" r="3.75" stroke="black" stroke-width="0.5"/>
</svg>
