<svg width="337" height="313" viewBox="0 0 337 313" fill="none" xmlns="http://www.w3.org/2000/svg">
<path d="M122.688 150.112C122.688 151.04 122.368 151.813 121.728 152.432C121.099 153.04 120.133 153.344 118.832 153.344H116.688V158H115.232V146.848H118.832C120.091 146.848 121.045 147.152 121.696 147.76C122.357 148.368 122.688 149.152 122.688 150.112ZM118.832 152.144C119.643 152.144 120.24 151.968 120.624 151.616C121.008 151.264 121.2 150.763 121.2 150.112C121.2 148.736 120.411 148.048 118.832 148.048H116.688V152.144H118.832ZM130.37 158L127.714 153.44H125.954V158H124.498V146.848H128.098C128.94 146.848 129.65 146.992 130.226 147.28C130.812 147.568 131.25 147.957 131.538 148.448C131.826 148.939 131.97 149.499 131.97 150.128C131.97 150.896 131.746 151.573 131.298 152.16C130.86 152.747 130.199 153.136 129.314 153.328L132.114 158H130.37ZM125.954 152.272H128.098C128.887 152.272 129.479 152.08 129.874 151.696C130.268 151.301 130.466 150.779 130.466 150.128C130.466 149.467 130.268 148.955 129.874 148.592C129.49 148.229 128.898 148.048 128.098 148.048H125.954V152.272ZM139.288 158.112C138.253 158.112 137.309 157.872 136.456 157.392C135.603 156.901 134.925 156.224 134.424 155.36C133.933 154.485 133.688 153.504 133.688 152.416C133.688 151.328 133.933 150.352 134.424 149.488C134.925 148.613 135.603 147.936 136.456 147.456C137.309 146.965 138.253 146.72 139.288 146.72C140.333 146.72 141.283 146.965 142.136 147.456C142.989 147.936 143.661 148.608 144.152 149.472C144.643 150.336 144.888 151.317 144.888 152.416C144.888 153.515 144.643 154.496 144.152 155.36C143.661 156.224 142.989 156.901 142.136 157.392C141.283 157.872 140.333 158.112 139.288 158.112ZM139.288 156.848C140.067 156.848 140.765 156.667 141.384 156.304C142.013 155.941 142.504 155.424 142.856 154.752C143.219 154.08 143.4 153.301 143.4 152.416C143.4 151.52 143.219 150.741 142.856 150.08C142.504 149.408 142.019 148.891 141.4 148.528C140.781 148.165 140.077 147.984 139.288 147.984C138.499 147.984 137.795 148.165 137.176 148.528C136.557 148.891 136.067 149.408 135.704 150.08C135.352 150.741 135.176 151.52 135.176 152.416C135.176 153.301 135.352 154.08 135.704 154.752C136.067 155.424 136.557 155.941 137.176 156.304C137.805 156.667 138.509 156.848 139.288 156.848ZM146.266 152.416C146.266 151.328 146.511 150.352 147.002 149.488C147.493 148.613 148.159 147.931 149.002 147.44C149.855 146.949 150.799 146.704 151.834 146.704C153.05 146.704 154.111 146.997 155.018 147.584C155.925 148.171 156.586 149.003 157.002 150.08H155.258C154.949 149.408 154.501 148.891 153.914 148.528C153.338 148.165 152.645 147.984 151.834 147.984C151.055 147.984 150.357 148.165 149.738 148.528C149.119 148.891 148.634 149.408 148.282 150.08C147.93 150.741 147.754 151.52 147.754 152.416C147.754 153.301 147.93 154.08 148.282 154.752C148.634 155.413 149.119 155.925 149.738 156.288C150.357 156.651 151.055 156.832 151.834 156.832C152.645 156.832 153.338 156.656 153.914 156.304C154.501 155.941 154.949 155.424 155.258 154.752H157.002C156.586 155.819 155.925 156.645 155.018 157.232C154.111 157.808 153.05 158.096 151.834 158.096C150.799 158.096 149.855 157.856 149.002 157.376C148.159 156.885 147.493 156.208 147.002 155.344C146.511 154.48 146.266 153.504 146.266 152.416ZM160.626 148.032V151.76H164.69V152.96H160.626V156.8H165.17V158H159.17V146.832H165.17V148.032H160.626ZM170.909 158.112C170.173 158.112 169.511 157.984 168.925 157.728C168.349 157.461 167.895 157.099 167.565 156.64C167.234 156.171 167.063 155.632 167.053 155.024H168.605C168.658 155.547 168.871 155.989 169.245 156.352C169.629 156.704 170.183 156.88 170.909 156.88C171.602 156.88 172.146 156.709 172.541 156.368C172.946 156.016 173.149 155.568 173.149 155.024C173.149 154.597 173.031 154.251 172.797 153.984C172.562 153.717 172.269 153.515 171.917 153.376C171.565 153.237 171.09 153.088 170.493 152.928C169.757 152.736 169.165 152.544 168.717 152.352C168.279 152.16 167.901 151.861 167.581 151.456C167.271 151.04 167.117 150.485 167.117 149.792C167.117 149.184 167.271 148.645 167.581 148.176C167.89 147.707 168.322 147.344 168.877 147.088C169.442 146.832 170.087 146.704 170.813 146.704C171.858 146.704 172.711 146.965 173.373 147.488C174.045 148.011 174.423 148.704 174.509 149.568H172.909C172.855 149.141 172.631 148.768 172.237 148.448C171.842 148.117 171.319 147.952 170.669 147.952C170.061 147.952 169.565 148.112 169.181 148.432C168.797 148.741 168.605 149.179 168.605 149.744C168.605 150.149 168.717 150.48 168.941 150.736C169.175 150.992 169.458 151.189 169.789 151.328C170.13 151.456 170.605 151.605 171.213 151.776C171.949 151.979 172.541 152.181 172.989 152.384C173.437 152.576 173.821 152.88 174.141 153.296C174.461 153.701 174.621 154.256 174.621 154.96C174.621 155.504 174.477 156.016 174.189 156.496C173.901 156.976 173.474 157.365 172.909 157.664C172.343 157.963 171.677 158.112 170.909 158.112ZM180.299 158.112C179.563 158.112 178.902 157.984 178.315 157.728C177.739 157.461 177.286 157.099 176.955 156.64C176.625 156.171 176.454 155.632 176.443 155.024H177.995C178.049 155.547 178.262 155.989 178.635 156.352C179.019 156.704 179.574 156.88 180.299 156.88C180.993 156.88 181.537 156.709 181.931 156.368C182.337 156.016 182.539 155.568 182.539 155.024C182.539 154.597 182.422 154.251 182.187 153.984C181.953 153.717 181.659 153.515 181.307 153.376C180.955 153.237 180.481 153.088 179.883 152.928C179.147 152.736 178.555 152.544 178.107 152.352C177.67 152.16 177.291 151.861 176.971 151.456C176.662 151.04 176.507 150.485 176.507 149.792C176.507 149.184 176.662 148.645 176.971 148.176C177.281 147.707 177.713 147.344 178.267 147.088C178.833 146.832 179.478 146.704 180.203 146.704C181.249 146.704 182.102 146.965 182.763 147.488C183.435 148.011 183.814 148.704 183.899 149.568H182.299C182.246 149.141 182.022 148.768 181.627 148.448C181.233 148.117 180.71 147.952 180.059 147.952C179.451 147.952 178.955 148.112 178.571 148.432C178.187 148.741 177.995 149.179 177.995 149.744C177.995 150.149 178.107 150.48 178.331 150.736C178.566 150.992 178.849 151.189 179.179 151.328C179.521 151.456 179.995 151.605 180.603 151.776C181.339 151.979 181.931 152.181 182.379 152.384C182.827 152.576 183.211 152.88 183.531 153.296C183.851 153.701 184.011 154.256 184.011 154.96C184.011 155.504 183.867 156.016 183.579 156.496C183.291 156.976 182.865 157.365 182.299 157.664C181.734 157.963 181.067 158.112 180.299 158.112ZM191.21 158.112C190.175 158.112 189.231 157.872 188.378 157.392C187.525 156.901 186.847 156.224 186.346 155.36C185.855 154.485 185.61 153.504 185.61 152.416C185.61 151.328 185.855 150.352 186.346 149.488C186.847 148.613 187.525 147.936 188.378 147.456C189.231 146.965 190.175 146.72 191.21 146.72C192.255 146.72 193.205 146.965 194.058 147.456C194.911 147.936 195.583 148.608 196.074 149.472C196.565 150.336 196.81 151.317 196.81 152.416C196.81 153.515 196.565 154.496 196.074 155.36C195.583 156.224 194.911 156.901 194.058 157.392C193.205 157.872 192.255 158.112 191.21 158.112ZM191.21 156.848C191.989 156.848 192.687 156.667 193.306 156.304C193.935 155.941 194.426 155.424 194.778 154.752C195.141 154.08 195.322 153.301 195.322 152.416C195.322 151.52 195.141 150.741 194.778 150.08C194.426 149.408 193.941 148.891 193.322 148.528C192.703 148.165 191.999 147.984 191.21 147.984C190.421 147.984 189.717 148.165 189.098 148.528C188.479 148.891 187.989 149.408 187.626 150.08C187.274 150.741 187.098 151.52 187.098 152.416C187.098 153.301 187.274 154.08 187.626 154.752C187.989 155.424 188.479 155.941 189.098 156.304C189.727 156.667 190.431 156.848 191.21 156.848ZM204.604 158L201.948 153.44H200.188V158H198.732V146.848H202.332C203.175 146.848 203.884 146.992 204.46 147.28C205.047 147.568 205.484 147.957 205.772 148.448C206.06 148.939 206.204 149.499 206.204 150.128C206.204 150.896 205.98 151.573 205.532 152.16C205.095 152.747 204.433 153.136 203.548 153.328L206.348 158H204.604ZM200.188 152.272H202.332C203.121 152.272 203.713 152.08 204.108 151.696C204.503 151.301 204.7 150.779 204.7 150.128C204.7 149.467 204.503 148.955 204.108 148.592C203.724 148.229 203.132 148.048 202.332 148.048H200.188V152.272Z" fill="black"/>
<path d="M12.8994 287.48L27.7743 300.741L309.044 300.241L323.919 286.229V26.0201L309.044 12.259H26.9629L12.8994 25.5197V265.963V278.473V287.48Z" stroke="black"/>
<path d="M13.4408 255.455H1.27051V245.447H13.4408" stroke="black"/>
<path d="M13.7113 278.723H1.54102V268.715H13.7113" stroke="black"/>
<path d="M13.1703 232.186H1V222.178H13.1703" stroke="black"/>
<path d="M13.1703 209.167H1V199.159H13.1703" stroke="black"/>
<path d="M13.7113 184.648H1.54102V174.64H13.7113" stroke="black"/>
<path d="M13.7113 161.629H1.54102V151.621H13.7113" stroke="black"/>
<path d="M13.1703 138.611H1V128.603H13.1703" stroke="black"/>
<path d="M13.1703 115.592H1V105.584H13.1703" stroke="black"/>
<path d="M13.7113 92.0732H1.54102V82.0652H13.7113" stroke="black"/>
<path d="M13.1703 69.0547H1V59.0467H13.1703" stroke="black"/>
<path d="M13.1703 45.5358H1V35.5278H13.1703" stroke="black"/>
<path d="M323.648 58.7965H335.818V68.8045H323.648" stroke="black"/>
<path d="M323.378 35.5278H335.549V45.5358H323.378" stroke="black"/>
<path d="M323.92 82.0652H336.09V92.0732H323.92" stroke="black"/>
<path d="M323.92 105.084H336.09V115.092H323.92" stroke="black"/>
<path d="M323.378 129.603H335.549V139.611H323.378" stroke="black"/>
<path d="M323.378 152.622H335.549V162.63H323.378" stroke="black"/>
<path d="M323.92 175.64H336.09V185.648H323.92" stroke="black"/>
<path d="M323.92 198.659H336.09V208.667H323.92" stroke="black"/>
<path d="M323.378 222.178H335.549V232.186H323.378" stroke="black"/>
<path d="M323.92 245.196H336.09V255.204H323.92" stroke="black"/>
<path d="M323.92 268.715H336.09V278.723H323.92" stroke="black"/>
<path d="M273.343 300.491V311.75H262.525V300.491" stroke="black"/>
<path d="M298.496 300.241V311.5H287.678V300.241" stroke="black"/>
<path d="M248.193 300.741V312H237.375V300.741" stroke="black"/>
<path d="M223.31 300.741V312H212.492V300.741" stroke="black"/>
<path d="M196.806 300.241V311.5H185.988V300.241" stroke="black"/>
<path d="M171.925 300.241V311.5H161.107V300.241" stroke="black"/>
<path d="M147.043 300.741V312H136.225V300.741" stroke="black"/>
<path d="M122.162 300.741V312H111.344V300.741" stroke="black"/>
<path d="M96.7399 300.241V311.5H85.9219V300.241" stroke="black"/>
<path d="M71.8571 300.741V312H61.0391V300.741" stroke="black"/>
<path d="M46.4353 300.741V312H35.6172V300.741" stroke="black"/>
<path d="M60.2288 12.5092V1.2502L71.0469 1.2502V12.5092" stroke="black"/>
<path d="M35.0755 12.7594V1.5004L45.8936 1.5004V12.7594" stroke="black"/>
<path d="M85.3792 12.259V1L96.1973 1V12.259" stroke="black"/>
<path d="M110.262 12.259V1L121.08 1V12.259" stroke="black"/>
<path d="M136.766 12.7594V1.5004L147.584 1.5004V12.7594" stroke="black"/>
<path d="M161.647 12.7594V1.5004L172.465 1.5004V12.7594" stroke="black"/>
<path d="M186.53 12.259V1L197.348 1V12.259" stroke="black"/>
<path d="M211.41 12.259V1L222.229 1V12.259" stroke="black"/>
<path d="M236.832 12.7594V1.5004L247.65 1.5004V12.7594" stroke="black"/>
<path d="M261.715 12.259V1L272.533 1V12.259" stroke="black"/>
<path d="M287.137 12.259V1L297.955 1V12.259" stroke="black"/>
<path d="M87.8145 86.3186L88.8963 218.425C88.3554 223.179 94.3053 228.183 99.1734 227.682L236.022 226.431C242.548 226.757 244.364 224.434 246.029 218.175V86.3186C243.62 81.3855 241.293 80.0966 236.022 79.5632H99.4439C93.0116 79.7565 90.2962 81.2421 87.8145 86.3186Z" stroke="black"/>
<ellipse cx="26.4223" cy="222.178" rx="2.70452" ry="2.50201" fill="#D9D9D9"/>
<ellipse cx="26.4223" cy="229.684" rx="2.70452" ry="2.50201" fill="#D9D9D9"/>
<ellipse cx="35.0766" cy="229.684" rx="2.70452" ry="2.50201" fill="#D9D9D9"/>
<ellipse cx="26.4223" cy="237.19" rx="2.70452" ry="2.50201" fill="#D9D9D9"/>
<ellipse cx="35.0766" cy="237.19" rx="2.70452" ry="2.50201" fill="#D9D9D9"/>
<ellipse cx="26.4223" cy="244.696" rx="2.70452" ry="2.50201" fill="#D9D9D9"/>
<ellipse cx="35.0766" cy="244.696" rx="2.70452" ry="2.50201" fill="#D9D9D9"/>
<ellipse cx="26.4223" cy="251.702" rx="2.70452" ry="2.50201" fill="#D9D9D9"/>
<ellipse cx="35.0766" cy="251.702" rx="2.70452" ry="2.50201" fill="#D9D9D9"/>
<ellipse cx="26.4223" cy="259.208" rx="2.70452" ry="2.50201" fill="#D9D9D9"/>
<ellipse cx="35.0766" cy="259.208" rx="2.70452" ry="2.50201" fill="#D9D9D9"/>
<ellipse cx="26.4223" cy="266.213" rx="2.70452" ry="2.50201" fill="#D9D9D9"/>
<ellipse cx="24.7992" cy="50.0394" rx="2.70452" ry="2.50201" fill="#D9D9D9"/>
<ellipse cx="24.7992" cy="57.5455" rx="2.70452" ry="2.50201" fill="#D9D9D9"/>
<ellipse cx="33.4535" cy="57.5455" rx="2.70452" ry="2.50201" fill="#D9D9D9"/>
<ellipse cx="24.7992" cy="65.0515" rx="2.70452" ry="2.50201" fill="#D9D9D9"/>
<ellipse cx="33.4535" cy="65.0515" rx="2.70452" ry="2.50201" fill="#D9D9D9"/>
<ellipse cx="24.7992" cy="72.5575" rx="2.70452" ry="2.50201" fill="#D9D9D9"/>
<ellipse cx="33.4535" cy="72.5575" rx="2.70452" ry="2.50201" fill="#D9D9D9"/>
<ellipse cx="24.7992" cy="79.5632" rx="2.70452" ry="2.50201" fill="#D9D9D9"/>
<ellipse cx="33.4535" cy="79.5632" rx="2.70452" ry="2.50201" fill="#D9D9D9"/>
<ellipse cx="24.7992" cy="87.0692" rx="2.70452" ry="2.50201" fill="#D9D9D9"/>
<ellipse cx="33.4535" cy="87.0692" rx="2.70452" ry="2.50201" fill="#D9D9D9"/>
<ellipse cx="24.7992" cy="94.0748" rx="2.70452" ry="2.50201" fill="#D9D9D9"/>
<ellipse cx="2.7045" cy="2.50204" rx="2.7045" ry="2.50204" transform="matrix(-0.999952 -0.00984697 0.0115053 -0.999934 312.818 266.781)" fill="#D9D9D9"/>
<ellipse cx="2.7045" cy="2.50204" rx="2.7045" ry="2.50204" transform="matrix(-0.999952 -0.00984697 0.0115053 -0.999934 312.904 259.276)" fill="#D9D9D9"/>
<ellipse cx="2.7045" cy="2.50204" rx="2.7045" ry="2.50204" transform="matrix(-0.999952 -0.00984697 0.0115053 -0.999934 304.25 259.191)" fill="#D9D9D9"/>
<ellipse cx="2.7045" cy="2.50204" rx="2.7045" ry="2.50204" transform="matrix(-0.999952 -0.00984697 0.0115053 -0.999934 312.99 251.77)" fill="#D9D9D9"/>
<ellipse cx="2.7045" cy="2.50204" rx="2.7045" ry="2.50204" transform="matrix(-0.999952 -0.00984697 0.0115053 -0.999934 304.336 251.685)" fill="#D9D9D9"/>
<ellipse cx="2.7045" cy="2.50204" rx="2.7045" ry="2.50204" transform="matrix(-0.999952 -0.00984697 0.0115053 -0.999934 313.076 244.265)" fill="#D9D9D9"/>
<ellipse cx="2.7045" cy="2.50204" rx="2.7045" ry="2.50204" transform="matrix(-0.999952 -0.00984697 0.0115053 -0.999934 304.424 244.179)" fill="#D9D9D9"/>
<ellipse cx="2.7045" cy="2.50204" rx="2.7045" ry="2.50204" transform="matrix(-0.999952 -0.00984697 0.0115053 -0.999934 313.158 237.259)" fill="#D9D9D9"/>
<ellipse cx="2.7045" cy="2.50204" rx="2.7045" ry="2.50204" transform="matrix(-0.999952 -0.00984697 0.0115053 -0.999934 304.504 237.174)" fill="#D9D9D9"/>
<ellipse cx="2.7045" cy="2.50204" rx="2.7045" ry="2.50204" transform="matrix(-0.999952 -0.00984697 0.0115053 -0.999934 313.244 229.754)" fill="#D9D9D9"/>
<ellipse cx="2.7045" cy="2.50204" rx="2.7045" ry="2.50204" transform="matrix(-0.999952 -0.00984697 0.0115053 -0.999934 304.59 229.669)" fill="#D9D9D9"/>
<ellipse cx="2.7045" cy="2.50204" rx="2.7045" ry="2.50204" transform="matrix(-0.999952 -0.00984697 0.0115053 -0.999934 313.324 222.749)" fill="#D9D9D9"/>
<ellipse cx="2.7045" cy="2.50204" rx="2.7045" ry="2.50204" transform="matrix(-0.999952 -0.00984697 0.0115053 -0.999934 312.561 94.2105)" fill="#D9D9D9"/>
<ellipse cx="2.7045" cy="2.50204" rx="2.7045" ry="2.50204" transform="matrix(-0.999952 -0.00984697 0.0115053 -0.999934 312.646 86.7049)" fill="#D9D9D9"/>
<ellipse cx="2.7045" cy="2.50204" rx="2.7045" ry="2.50204" transform="matrix(-0.999952 -0.00984697 0.0115053 -0.999934 303.992 86.6197)" fill="#D9D9D9"/>
<ellipse cx="2.7045" cy="2.50204" rx="2.7045" ry="2.50204" transform="matrix(-0.999952 -0.00984697 0.0115053 -0.999934 312.732 79.1993)" fill="#D9D9D9"/>
<ellipse cx="2.7045" cy="2.50204" rx="2.7045" ry="2.50204" transform="matrix(-0.999952 -0.00984697 0.0115053 -0.999934 304.078 79.1141)" fill="#D9D9D9"/>
<ellipse cx="2.7045" cy="2.50204" rx="2.7045" ry="2.50204" transform="matrix(-0.999952 -0.00984697 0.0115053 -0.999934 312.818 71.6937)" fill="#D9D9D9"/>
<ellipse cx="2.7045" cy="2.50204" rx="2.7045" ry="2.50204" transform="matrix(-0.999952 -0.00984697 0.0115053 -0.999934 304.166 71.6085)" fill="#D9D9D9"/>
<ellipse cx="2.7045" cy="2.50204" rx="2.7045" ry="2.50204" transform="matrix(-0.999952 -0.00984697 0.0115053 -0.999934 312.9 64.6885)" fill="#D9D9D9"/>
<ellipse cx="2.7045" cy="2.50204" rx="2.7045" ry="2.50204" transform="matrix(-0.999952 -0.00984697 0.0115053 -0.999934 304.246 64.6033)" fill="#D9D9D9"/>
<ellipse cx="2.7045" cy="2.50204" rx="2.7045" ry="2.50204" transform="matrix(-0.999952 -0.00984697 0.0115053 -0.999934 312.986 57.1829)" fill="#D9D9D9"/>
<ellipse cx="2.7045" cy="2.50204" rx="2.7045" ry="2.50204" transform="matrix(-0.999952 -0.00984697 0.0115053 -0.999934 304.332 57.0976)" fill="#D9D9D9"/>
<ellipse cx="2.7045" cy="2.50204" rx="2.7045" ry="2.50204" transform="matrix(-0.999952 -0.00984697 0.0115053 -0.999934 313.066 50.1776)" fill="#D9D9D9"/>
<ellipse cx="2.70452" cy="2.50201" rx="2.70452" ry="2.50201" transform="matrix(0.999997 0.00262486 -0.00306695 0.999995 80.5293 286.229)" fill="#D9D9D9"/>
<ellipse cx="2.70452" cy="2.50201" rx="2.70452" ry="2.50201" transform="matrix(0.999997 0.00262486 -0.00306695 0.999995 72.9551 286.229)" fill="#D9D9D9"/>
<ellipse cx="2.70452" cy="2.50201" rx="2.70452" ry="2.50201" transform="matrix(0.999997 0.00262486 -0.00306695 0.999995 64.8418 286.229)" fill="#D9D9D9"/>
<ellipse cx="2.70452" cy="2.50201" rx="2.70452" ry="2.50201" transform="matrix(0.999997 0.00262486 -0.00306695 0.999995 57.2695 286.229)" fill="#D9D9D9"/>
<ellipse cx="2.70452" cy="2.50201" rx="2.70452" ry="2.50201" transform="matrix(0.999997 0.00262486 -0.00306695 0.999995 50.2383 286.229)" fill="#D9D9D9"/>
<ellipse cx="2.70452" cy="2.50201" rx="2.70452" ry="2.50201" transform="matrix(0.999997 0.00262486 -0.00306695 0.999995 42.125 286.229)" fill="#D9D9D9"/>
<ellipse cx="2.70452" cy="2.50201" rx="2.70452" ry="2.50201" transform="matrix(0.999997 0.00262486 -0.00306695 0.999995 35.0928 286.229)" fill="#D9D9D9"/>
<ellipse cx="2.70452" cy="2.50201" rx="2.70452" ry="2.50201" transform="matrix(0.999996 0.00264983 -0.00303805 0.999995 21.0293 286.229)" fill="#D9D9D9"/>
<ellipse cx="2.70452" cy="2.50201" rx="2.70452" ry="2.50201" transform="matrix(0.999997 0.00262486 -0.00306695 0.999995 82.6934 23.0177)" fill="#D9D9D9"/>
<ellipse cx="2.70452" cy="2.50201" rx="2.70452" ry="2.50201" transform="matrix(0.999997 0.00262486 -0.00306695 0.999995 75.1211 23.0177)" fill="#D9D9D9"/>
<ellipse cx="2.70452" cy="2.50201" rx="2.70452" ry="2.50201" transform="matrix(0.999997 0.00262486 -0.00306695 0.999995 67.0059 23.0177)" fill="#D9D9D9"/>
<ellipse cx="2.70452" cy="2.50201" rx="2.70452" ry="2.50201" transform="matrix(0.999997 0.00262486 -0.00306695 0.999995 59.4336 23.0177)" fill="#D9D9D9"/>
<ellipse cx="2.70452" cy="2.50201" rx="2.70452" ry="2.50201" transform="matrix(0.999997 0.00262486 -0.00306695 0.999995 52.4023 23.0177)" fill="#D9D9D9"/>
<ellipse cx="2.70452" cy="2.50201" rx="2.70452" ry="2.50201" transform="matrix(0.999997 0.00262486 -0.00306695 0.999995 44.2891 23.0177)" fill="#D9D9D9"/>
<ellipse cx="2.70452" cy="2.50201" rx="2.70452" ry="2.50201" transform="matrix(0.999997 0.00262486 -0.00306695 0.999995 37.2568 23.0177)" fill="#D9D9D9"/>
<ellipse cx="2.70452" cy="2.50201" rx="2.70452" ry="2.50201" transform="matrix(0.999997 0.00262486 -0.00306695 0.999995 23.1934 23.0177)" fill="#D9D9D9"/>
<ellipse cx="2.7045" cy="2.50203" rx="2.7045" ry="2.50203" transform="matrix(-0.999948 -0.00984648 0.0115048 -0.999938 253.604 290.786)" fill="#D9D9D9"/>
<ellipse cx="2.7045" cy="2.50203" rx="2.7045" ry="2.50203" transform="matrix(-0.999948 -0.00984648 0.0115048 -0.999938 261.176 290.841)" fill="#D9D9D9"/>
<ellipse cx="2.7045" cy="2.50203" rx="2.7045" ry="2.50203" transform="matrix(-0.999948 -0.00984648 0.0115048 -0.999938 269.289 290.899)" fill="#D9D9D9"/>
<ellipse cx="2.7045" cy="2.50203" rx="2.7045" ry="2.50203" transform="matrix(-0.999948 -0.00984648 0.0115048 -0.999938 276.861 290.954)" fill="#D9D9D9"/>
<ellipse cx="2.7045" cy="2.50203" rx="2.7045" ry="2.50203" transform="matrix(-0.999948 -0.00984648 0.0115048 -0.999938 283.893 291.005)" fill="#D9D9D9"/>
<ellipse cx="2.7045" cy="2.50203" rx="2.7045" ry="2.50203" transform="matrix(-0.999948 -0.00984648 0.0115048 -0.999938 292.006 291.063)" fill="#D9D9D9"/>
<ellipse cx="2.7045" cy="2.50203" rx="2.7045" ry="2.50203" transform="matrix(-0.999948 -0.00984648 0.0115048 -0.999938 299.037 291.114)" fill="#D9D9D9"/>
<ellipse cx="2.7045" cy="2.50203" rx="2.7045" ry="2.50203" transform="matrix(-0.999948 -0.00984648 0.0115048 -0.999938 313.1 291.216)" fill="#D9D9D9"/>
<ellipse cx="2.7045" cy="2.50203" rx="2.7045" ry="2.50203" transform="matrix(-0.999948 -0.00984648 0.0115048 -0.999938 254.145 27.5744)" fill="#D9D9D9"/>
<ellipse cx="2.7045" cy="2.50203" rx="2.7045" ry="2.50203" transform="matrix(-0.999948 -0.00984648 0.0115048 -0.999938 261.717 27.6291)" fill="#D9D9D9"/>
<ellipse cx="2.7045" cy="2.50203" rx="2.7045" ry="2.50203" transform="matrix(-0.999948 -0.00984648 0.0115048 -0.999938 269.83 27.6877)" fill="#D9D9D9"/>
<ellipse cx="2.7045" cy="2.50203" rx="2.7045" ry="2.50203" transform="matrix(-0.999948 -0.00984648 0.0115048 -0.999938 277.402 27.7424)" fill="#D9D9D9"/>
<ellipse cx="2.7045" cy="2.50203" rx="2.7045" ry="2.50203" transform="matrix(-0.999948 -0.00984648 0.0115048 -0.999938 284.434 27.7932)" fill="#D9D9D9"/>
<ellipse cx="2.7045" cy="2.50203" rx="2.7045" ry="2.50203" transform="matrix(-0.999948 -0.00984648 0.0115048 -0.999938 292.547 27.8517)" fill="#D9D9D9"/>
<ellipse cx="2.7045" cy="2.50203" rx="2.7045" ry="2.50203" transform="matrix(-0.999948 -0.00984648 0.0115048 -0.999938 299.578 27.9025)" fill="#D9D9D9"/>
<ellipse cx="2.7045" cy="2.50203" rx="2.7045" ry="2.50203" transform="matrix(-0.999948 -0.00984648 0.0115048 -0.999938 313.641 28.0041)" fill="#D9D9D9"/>
</svg>
