<svg xmlns="http://www.w3.org/2000/svg" width="16.84" height="17.34" viewBox="0 0 16.84 17.34">
  <g id="Group_19156" data-name="Group 19156" transform="translate(-30.58 -341.5)">
    <g id="vuesax_linear_task-square" data-name="vuesax/linear/task-square" transform="translate(30.58 342)">
      <g id="task-square">
        <path id="Vector" d="M0,0H3.684" transform="translate(8.68 6.231)" fill="none" stroke="#292d32" stroke-linecap="round" stroke-linejoin="round" stroke-width="1"/>
        <path id="Vector-2" data-name="Vector" d="M0,1.052l.526.526L2.1,0" transform="translate(4.477 5.178)" fill="none" stroke="#292d32" stroke-linecap="round" stroke-linejoin="round" stroke-width="1"/>
        <path id="Vector-3" data-name="Vector" d="M0,0H3.684" transform="translate(8.68 11.142)" fill="none" stroke="#292d32" stroke-linecap="round" stroke-linejoin="round" stroke-width="1"/>
        <path id="Vector-4" data-name="Vector" d="M0,1.052l.526.526L2.1,0" transform="translate(4.477 10.09)" fill="none" stroke="#292d32" stroke-linecap="round" stroke-linejoin="round" stroke-width="1"/>
        <path id="Vector-5" data-name="Vector" d="M4.912,14.033h4.21c3.508,0,4.912-1.4,4.912-4.912V4.912C14.033,1.4,12.63,0,9.122,0H4.912C1.4,0,0,1.4,0,4.912v4.21C0,12.63,1.4,14.033,4.912,14.033Z" transform="translate(1.403 1.403)" fill="none" stroke="#292d32" stroke-linecap="round" stroke-linejoin="round" stroke-width="1"/>
        <path id="Vector-6" data-name="Vector" d="M0,0H16.84V16.84H0Z" fill="none" opacity="0"/>
      </g>
    </g>
    <path id="Vector-7" data-name="Vector" d="M0,0V2.1" transform="translate(36.193 342)" fill="none" stroke="#292d32" stroke-linecap="round" stroke-linejoin="round" stroke-width="1"/>
    <path id="Vector-8" data-name="Vector" d="M0,0V2.1" transform="translate(41.807 342)" fill="none" stroke="#292d32" stroke-linecap="round" stroke-linejoin="round" stroke-width="1"/>
  </g>
</svg>
