<svg xmlns="http://www.w3.org/2000/svg" width="109.736" height="26.13" viewBox="0 0 109.736 26.13">
  <g id="Group_19142" data-name="Group 19142" transform="translate(-50 -55.2)">
    <g id="Group_19140" data-name="Group 19140" transform="translate(75.298 55.734)">
      <g id="Group_19138" data-name="Group 19138" transform="translate(0)">
        <g id="Group_19137" data-name="Group 19137">
          <path id="Path_31" data-name="Path 31" d="M253.7,74.23l1.465-3.279a9.956,9.956,0,0,0,5.191,1.552c1.838,0,2.558-.522,2.558-1.279,0-2.5-8.954-.671-8.954-6.52,0-2.807,2.3-5.1,6.967-5.1a11.844,11.844,0,0,1,5.713,1.366l-1.366,3.3a9.326,9.326,0,0,0-4.359-1.217c-1.863,0-2.546.633-2.546,1.416,0,2.409,8.929.609,8.929,6.408,0,2.745-2.3,5.079-6.967,5.079A12.414,12.414,0,0,1,253.7,74.23Z" transform="translate(-253.7 -59.588)" fill="#010101"/>
          <path id="Path_32" data-name="Path 32" d="M406.9,62.1h4.446V77.835H406.9Z" transform="translate(-387.874 -61.777)" fill="#010101"/>
          <path id="Path_33" data-name="Path 33" d="M495.4,62.1h4.446V74.308h7.514v3.527H495.4Z" transform="translate(-465.383 -61.777)" fill="#010101"/>
          <path id="Path_34" data-name="Path 34" d="M647.978,73.513c0,2.72-2.248,4.322-6.47,4.322H633V62.1h8.048c4.136,0,6.16,1.689,6.16,4.111a3.727,3.727,0,0,1-2.111,3.415A3.976,3.976,0,0,1,647.978,73.513ZM637.409,65.3v3.03h3.055c1.478,0,2.248-.522,2.248-1.528s-.77-1.5-2.248-1.5Zm6.073,7.725c0-1.08-.807-1.6-2.335-1.6h-3.738v3.192h3.738C642.662,74.619,643.482,74.1,643.482,73.029Z" transform="translate(-585.894 -61.777)" fill="#010101"/>
          <path id="Path_35" data-name="Path 35" d="M792.8,67.684c0-4.719,3.713-8.184,8.743-8.184s8.743,3.465,8.743,8.184-3.713,8.184-8.743,8.184S792.8,72.416,792.8,67.684Zm13,0a4.254,4.254,0,1,0-4.247,4.5A4.212,4.212,0,0,0,805.8,67.684Z" transform="translate(-725.848 -59.5)" fill="#010101"/>
        </g>
      </g>
      <g id="Group_19139" data-name="Group 19139" transform="translate(0 18.84)">
        <path id="Path_36" data-name="Path 36" d="M258.283,218.36h-3.241l-.7,1.552H253.7l2.658-5.812h.609l2.658,5.812h-.646Zm-.224-.509-1.391-3.13-1.391,3.13Z" transform="translate(-253.7 -213.74)" fill="#228bcc"/>
        <path id="Path_37" data-name="Path 37" d="M312.036,227.362V229.9h-.6v-2.471a1.22,1.22,0,0,0-1.316-1.391,1.43,1.43,0,0,0-1.528,1.577v2.3H308v-4.372h.571v.807a1.832,1.832,0,0,1,1.664-.844A1.665,1.665,0,0,1,312.036,227.362Z" transform="translate(-301.256 -223.723)" fill="#228bcc"/>
        <path id="Path_38" data-name="Path 38" d="M372,214h.621v5.812H372Z" transform="translate(-357.308 -213.652)" fill="#228bcc"/>
        <path id="Path_39" data-name="Path 39" d="M395.136,227.362V229.9h-.6v-2.471a1.22,1.22,0,0,0-1.316-1.391,1.43,1.43,0,0,0-1.528,1.577v2.3h-.6v-4.372h.571v.807a1.832,1.832,0,0,1,1.664-.844A1.665,1.665,0,0,1,395.136,227.362Z" transform="translate(-374.036 -223.723)" fill="#228bcc"/>
        <path id="Path_40" data-name="Path 40" d="M433.7,225.7l-1.95,4.372h-.609L429.2,225.7h.621l1.639,3.726,1.652-3.726Z" transform="translate(-407.404 -223.899)" fill="#228bcc"/>
        <path id="Path_41" data-name="Path 41" d="M471.747,227.8H468.1a1.609,1.609,0,0,0,1.714,1.515,1.72,1.72,0,0,0,1.341-.571l.335.385a2.312,2.312,0,0,1-3.987-1.5,2.112,2.112,0,0,1,2.136-2.223,2.088,2.088,0,0,1,2.124,2.223C471.76,227.673,471.747,227.735,471.747,227.8Zm-3.651-.435h3.1a1.556,1.556,0,0,0-3.1,0Z" transform="translate(-440.948 -223.636)" fill="#228bcc"/>
        <path id="Path_42" data-name="Path 42" d="M515.436,227.362V229.9h-.6v-2.471a1.22,1.22,0,0,0-1.316-1.391A1.43,1.43,0,0,0,512,227.61v2.3h-.6v-4.372h.571v.807a1.832,1.832,0,0,1,1.664-.844A1.665,1.665,0,0,1,515.436,227.362Z" transform="translate(-479.396 -223.723)" fill="#228bcc"/>
        <path id="Path_43" data-name="Path 43" d="M557.821,211.2v6.16h-.559v-.869a1.891,1.891,0,0,1-1.689.907,2.224,2.224,0,0,1,0-4.446,1.914,1.914,0,0,1,1.664.869V211.2Zm-.584,3.987a1.623,1.623,0,1,0-1.615,1.7A1.6,1.6,0,0,0,557.238,215.187Z" transform="translate(-516.18 -211.2)" fill="#228bcc"/>
        <path id="Path_44" data-name="Path 44" d="M601.2,211.71a.435.435,0,0,1,.869,0,.432.432,0,0,1-.435.435A.448.448,0,0,1,601.2,211.71Zm.137,1.379h.6v4.372h-.6Z" transform="translate(-558.043 -211.288)" fill="#228bcc"/>
        <path id="Path_45" data-name="Path 45" d="M615.4,229.312l.261-.46a2.653,2.653,0,0,0,1.552.484c.832,0,1.167-.286,1.167-.72,0-1.143-2.832-.236-2.832-1.975,0-.72.621-1.242,1.726-1.242a2.952,2.952,0,0,1,1.54.41l-.261.472a2.3,2.3,0,0,0-1.292-.373c-.795,0-1.143.31-1.143.72,0,1.18,2.832.286,2.832,1.975,0,.758-.671,1.242-1.8,1.242A2.964,2.964,0,0,1,615.4,229.312Z" transform="translate(-570.48 -223.637)" fill="#228bcc"/>
        <path id="Path_46" data-name="Path 46" d="M676.058,216c0,1.242-.894,1.987-2.372,1.987h-1.565v1.838H671.5V214h2.173C675.164,214,676.058,214.758,676.058,216Zm-.621,0c0-.931-.621-1.465-1.776-1.465h-1.54v2.906h1.54C674.828,217.44,675.437,216.919,675.437,216Z" transform="translate(-619.613 -213.652)" fill="#228bcc"/>
        <path id="Path_47" data-name="Path 47" d="M719.211,225.4v.571c-.05,0-.1-.012-.137-.012-.919,0-1.465.584-1.465,1.614V229.8H717v-4.372h.571v.857A1.661,1.661,0,0,1,719.211,225.4Z" transform="translate(-659.462 -223.636)" fill="#228bcc"/>
        <path id="Path_48" data-name="Path 48" d="M739.4,227.623a2.223,2.223,0,1,1,2.223,2.223A2.153,2.153,0,0,1,739.4,227.623Zm3.85,0a1.623,1.623,0,1,0-1.615,1.7A1.6,1.6,0,0,0,743.25,227.623Z" transform="translate(-679.08 -223.637)" fill="#228bcc"/>
        <path id="Path_49" data-name="Path 49" d="M785.821,211.2v6.16h-.559v-.869a1.891,1.891,0,0,1-1.689.907,2.224,2.224,0,0,1,0-4.446,1.914,1.914,0,0,1,1.664.869V211.2Zm-.571,3.987a1.623,1.623,0,1,0-1.615,1.7A1.6,1.6,0,0,0,785.25,215.187Z" transform="translate(-715.864 -211.2)" fill="#228bcc"/>
        <path id="Path_50" data-name="Path 50" d="M833.887,225.7v4.372h-.571v-.795a1.735,1.735,0,0,1-1.565.844,1.694,1.694,0,0,1-1.85-1.875v-2.534h.6v2.471a1.224,1.224,0,0,0,1.316,1.4A1.425,1.425,0,0,0,833.3,228v-2.3Z" transform="translate(-758.341 -223.899)" fill="#228bcc"/>
        <path id="Path_51" data-name="Path 51" d="M871.8,227.623a2.152,2.152,0,0,1,2.248-2.223,1.887,1.887,0,0,1,1.714.869l-.435.3a1.5,1.5,0,0,0-1.267-.646,1.7,1.7,0,0,0,0,3.4,1.456,1.456,0,0,0,1.267-.646l.435.3a1.94,1.94,0,0,1-1.714.869A2.152,2.152,0,0,1,871.8,227.623Z" transform="translate(-795.037 -223.637)" fill="#228bcc"/>
        <path id="Path_52" data-name="Path 52" d="M910.881,223.055a1.4,1.4,0,0,1-.919.31,1.155,1.155,0,0,1-1.279-1.267v-2.645H907.9v-.5h.782V218h.6v.956h1.329v.5h-1.329v2.608a.7.7,0,0,0,.758.795.973.973,0,0,0,.646-.224Z" transform="translate(-826.654 -217.155)" fill="#228bcc"/>
      </g>
    </g>
    <g id="Group_19141" data-name="Group 19141" transform="translate(50 55.2)">
      <path id="Path_53" data-name="Path 53" d="M122.4,152.057a1.381,1.381,0,1,1,1.3-1.379A1.293,1.293,0,0,1,122.4,152.057Z" transform="translate(-112.27 -137.614)" fill="#010101"/>
      <path id="Path_54" data-name="Path 54" d="M70.268,55.2v8.284H66.791V58.677h-3.13a10.054,10.054,0,0,0-10.022,7.849h4.508a2.521,2.521,0,0,0,0,3.477H50V68.265a11.579,11.579,0,0,1,.124-1.739A13.482,13.482,0,0,1,63.661,55.2Z" transform="translate(-50 -55.2)" fill="#228bcc"/>
      <path id="Path_55" data-name="Path 55" d="M62.109,146.4h8.159v1.739c0,7.2-6.135,13.065-13.661,13.065H50v-8.445h3.477v4.968h3.13a10.054,10.054,0,0,0,10.022-7.849H62.121a2.474,2.474,0,0,0-.012-3.477Z" transform="translate(-50 -135.074)" fill="#228bcc"/>
      <path id="Path_56" data-name="Path 56" d="M57.452,148.139a2.449,2.449,0,0,0,.7,1.739H50v-1.739a11.579,11.579,0,0,1,.124-1.739h8.035A2.387,2.387,0,0,0,57.452,148.139Z" transform="translate(-50 -135.074)" fill="#010101"/>
      <rect id="Rectangle_17981" data-name="Rectangle 17981" width="3.477" height="8.445" transform="translate(0 17.685)" fill="#010101"/>
    </g>
  </g>
</svg>
