<?xml version="1.0" encoding="UTF-8"?>
<svg xmlns="http://www.w3.org/2000/svg" xmlns:xlink="http://www.w3.org/1999/xlink" width="20px" height="20px" viewBox="0 0 20 20" version="1.1">
<g id="surface1">
<path style=" stroke:none;fill-rule:nonzero;fill:rgb(0%,0%,0%);fill-opacity:1;" d="M 9.667969 1.285156 C 9.246094 1.394531 8.859375 1.703125 8.660156 2.089844 C 8.542969 2.308594 8.535156 2.351562 8.535156 2.734375 C 8.535156 3.121094 8.542969 3.160156 8.664062 3.40625 C 8.804688 3.691406 9.078125 3.96875 9.335938 4.089844 L 9.488281 4.160156 L 9.492188 5.828125 L 9.492188 7.5 L 8.515625 7.5 L 8.515625 7.097656 C 8.515625 6.589844 8.457031 6.246094 8.335938 5.996094 C 8.273438 5.875 8.074219 5.636719 7.800781 5.363281 L 7.367188 4.925781 L 7.4375 4.648438 C 7.832031 3.128906 5.96875 2.097656 4.902344 3.25 C 4.617188 3.554688 4.515625 3.820312 4.515625 4.261719 C 4.515625 4.574219 4.527344 4.625 4.660156 4.894531 C 4.828125 5.234375 5.046875 5.449219 5.386719 5.613281 C 5.675781 5.75 6.101562 5.78125 6.425781 5.683594 L 6.652344 5.621094 L 7.019531 5.984375 C 7.222656 6.183594 7.414062 6.394531 7.445312 6.453125 C 7.484375 6.527344 7.5 6.695312 7.5 7.027344 L 7.5 7.496094 L 5.207031 7.507812 L 2.910156 7.519531 L 2.6875 7.609375 C 2.371094 7.738281 2.0625 8.03125 1.90625 8.351562 L 1.777344 8.613281 L 1.777344 11.386719 L 1.90625 11.648438 C 2.0625 11.96875 2.371094 12.261719 2.6875 12.390625 L 2.910156 12.480469 L 5.207031 12.492188 L 7.5 12.503906 L 7.5 12.972656 C 7.5 13.304688 7.484375 13.472656 7.445312 13.546875 C 7.414062 13.605469 7.222656 13.816406 7.019531 14.015625 L 6.652344 14.378906 L 6.425781 14.316406 C 6.101562 14.21875 5.675781 14.25 5.386719 14.386719 C 5.046875 14.550781 4.828125 14.765625 4.660156 15.105469 C 4.527344 15.375 4.515625 15.425781 4.515625 15.738281 C 4.515625 15.992188 4.539062 16.128906 4.605469 16.300781 C 4.71875 16.59375 5.042969 16.941406 5.324219 17.082031 C 6.492188 17.652344 7.765625 16.613281 7.4375 15.351562 L 7.367188 15.074219 L 7.800781 14.636719 C 8.074219 14.363281 8.273438 14.125 8.335938 14.003906 C 8.457031 13.753906 8.515625 13.410156 8.515625 12.898438 L 8.515625 12.5 L 9.492188 12.5 L 9.492188 14.167969 L 9.488281 15.839844 L 9.335938 15.910156 C 9.078125 16.03125 8.804688 16.308594 8.664062 16.59375 C 8.542969 16.839844 8.535156 16.878906 8.535156 17.265625 C 8.535156 17.648438 8.542969 17.691406 8.660156 17.910156 C 9.046875 18.652344 9.945312 18.953125 10.679688 18.585938 C 10.933594 18.457031 11.230469 18.148438 11.351562 17.878906 C 11.453125 17.664062 11.464844 17.59375 11.464844 17.246094 C 11.464844 16.882812 11.457031 16.835938 11.335938 16.59375 C 11.195312 16.304688 10.867188 15.972656 10.644531 15.894531 L 10.507812 15.84375 L 10.507812 12.5 L 11.484375 12.5 L 11.484375 12.898438 C 11.484375 13.789062 11.582031 14.027344 12.207031 14.648438 L 12.644531 15.085938 L 12.570312 15.324219 C 12.410156 15.832031 12.5625 16.425781 12.949219 16.808594 C 13.5625 17.410156 14.511719 17.386719 15.097656 16.75 C 15.382812 16.445312 15.484375 16.179688 15.484375 15.738281 C 15.484375 15.425781 15.472656 15.375 15.339844 15.105469 C 15.085938 14.589844 14.660156 14.300781 14.097656 14.265625 C 13.886719 14.253906 13.734375 14.269531 13.574219 14.316406 L 13.347656 14.378906 L 12.980469 14.015625 C 12.777344 13.816406 12.585938 13.605469 12.554688 13.546875 C 12.515625 13.472656 12.5 13.304688 12.5 12.972656 L 12.5 12.503906 L 14.796875 12.492188 L 17.089844 12.480469 L 17.3125 12.390625 C 17.628906 12.261719 17.9375 11.96875 18.09375 11.648438 L 18.222656 11.386719 L 18.222656 8.613281 L 18.09375 8.351562 C 17.9375 8.03125 17.628906 7.738281 17.3125 7.609375 L 17.089844 7.519531 L 14.796875 7.507812 L 12.5 7.496094 L 12.5 7.027344 C 12.5 6.695312 12.515625 6.527344 12.554688 6.453125 C 12.585938 6.394531 12.777344 6.183594 12.980469 5.984375 L 13.347656 5.621094 L 13.574219 5.683594 C 13.734375 5.730469 13.886719 5.746094 14.097656 5.734375 C 14.660156 5.699219 15.085938 5.410156 15.339844 4.894531 C 15.472656 4.625 15.484375 4.574219 15.484375 4.261719 C 15.484375 3.816406 15.382812 3.554688 15.089844 3.242188 C 14.507812 2.613281 13.5625 2.589844 12.949219 3.191406 C 12.5625 3.574219 12.410156 4.167969 12.570312 4.675781 L 12.644531 4.914062 L 12.207031 5.351562 C 11.582031 5.972656 11.484375 6.210938 11.484375 7.097656 L 11.484375 7.5 L 10.507812 7.5 L 10.507812 5.828125 L 10.511719 4.160156 L 10.707031 4.066406 C 10.953125 3.945312 11.226562 3.65625 11.359375 3.367188 C 11.453125 3.171875 11.464844 3.097656 11.464844 2.753906 C 11.464844 2.40625 11.453125 2.335938 11.351562 2.121094 C 11.214844 1.824219 10.910156 1.519531 10.601562 1.378906 C 10.371094 1.273438 9.890625 1.226562 9.667969 1.285156 Z M 10.332031 2.394531 C 10.570312 2.632812 10.539062 2.996094 10.265625 3.164062 C 10.003906 3.320312 9.660156 3.214844 9.546875 2.941406 C 9.464844 2.746094 9.507812 2.554688 9.667969 2.394531 C 9.78125 2.28125 9.820312 2.265625 10 2.265625 C 10.179688 2.265625 10.21875 2.28125 10.332031 2.394531 Z M 6.355469 3.921875 C 6.460938 4.035156 6.484375 4.09375 6.484375 4.226562 C 6.484375 4.417969 6.378906 4.617188 6.242188 4.691406 C 6.015625 4.8125 5.679688 4.710938 5.5625 4.488281 C 5.441406 4.253906 5.515625 3.992188 5.742188 3.835938 C 5.945312 3.699219 6.183594 3.734375 6.355469 3.921875 Z M 14.261719 3.839844 C 14.742188 4.164062 14.414062 4.878906 13.855469 4.722656 C 13.53125 4.632812 13.402344 4.203125 13.621094 3.945312 C 13.800781 3.730469 14.042969 3.691406 14.261719 3.839844 Z M 17.054688 8.613281 C 17.132812 8.671875 17.199219 8.769531 17.226562 8.859375 C 17.28125 9.066406 17.273438 10.996094 17.214844 11.171875 C 17.1875 11.246094 17.109375 11.34375 17.035156 11.394531 L 16.902344 11.484375 L 3.097656 11.484375 L 2.964844 11.394531 C 2.890625 11.34375 2.8125 11.246094 2.785156 11.171875 C 2.726562 11 2.71875 9.066406 2.773438 8.859375 C 2.796875 8.78125 2.867188 8.671875 2.933594 8.617188 L 3.054688 8.515625 L 16.925781 8.515625 Z M 6.261719 15.320312 C 6.378906 15.382812 6.484375 15.59375 6.484375 15.769531 C 6.484375 15.898438 6.457031 15.964844 6.363281 16.070312 C 6.167969 16.292969 5.890625 16.308594 5.660156 16.101562 C 5.382812 15.855469 5.511719 15.355469 5.878906 15.261719 C 5.972656 15.238281 6.164062 15.265625 6.261719 15.320312 Z M 14.300781 15.355469 C 14.535156 15.519531 14.554688 15.910156 14.339844 16.101562 C 14.109375 16.308594 13.832031 16.292969 13.636719 16.070312 C 13.535156 15.957031 13.515625 15.902344 13.515625 15.742188 C 13.515625 15.328125 13.957031 15.109375 14.300781 15.355469 Z M 10.265625 16.835938 C 10.539062 17.003906 10.570312 17.367188 10.332031 17.605469 C 10.21875 17.71875 10.179688 17.734375 10 17.734375 C 9.820312 17.734375 9.78125 17.71875 9.667969 17.605469 C 9.59375 17.53125 9.527344 17.417969 9.511719 17.335938 C 9.457031 17.046875 9.699219 16.757812 10 16.757812 C 10.074219 16.757812 10.195312 16.792969 10.265625 16.835938 Z M 10.265625 16.835938 "/>
<path style=" stroke:none;fill-rule:nonzero;fill:rgb(0%,0%,0%);fill-opacity:1;" d="M 12.554688 9.546875 C 12.363281 9.632812 12.265625 9.785156 12.265625 10.007812 C 12.265625 10.175781 12.285156 10.222656 12.394531 10.332031 C 12.554688 10.492188 12.746094 10.535156 12.941406 10.453125 C 13.328125 10.292969 13.332031 9.707031 12.949219 9.546875 C 12.785156 9.480469 12.710938 9.480469 12.554688 9.546875 Z M 12.554688 9.546875 "/>
<path style=" stroke:none;fill-rule:nonzero;fill:rgb(0%,0%,0%);fill-opacity:1;" d="M 14.023438 9.5625 C 13.769531 9.699219 13.683594 10.046875 13.839844 10.289062 C 13.929688 10.421875 14.160156 10.519531 14.320312 10.492188 C 14.828125 10.394531 14.886719 9.71875 14.402344 9.535156 C 14.25 9.476562 14.179688 9.480469 14.023438 9.5625 Z M 14.023438 9.5625 "/>
<path style=" stroke:none;fill-rule:nonzero;fill:rgb(0%,0%,0%);fill-opacity:1;" d="M 15.550781 9.558594 C 15.359375 9.660156 15.261719 9.808594 15.261719 10 C 15.261719 10.550781 16.058594 10.679688 16.214844 10.152344 C 16.34375 9.734375 15.925781 9.359375 15.550781 9.558594 Z M 15.550781 9.558594 "/>
</g>
</svg>
