<?xml version="1.0" encoding="UTF-8"?>
<svg version="1.1" xmlns="http://www.w3.org/2000/svg" width="512" height="512">
<path d="M0 0 C4.40745028 2.35943746 8.18016923 5.26865715 12.05029297 8.41699219 C14.8088503 10.65672243 17.6219782 12.82384578 20.43115234 14.99951172 C21.94882866 16.17693427 23.46343363 17.35832534 24.97509766 18.54345703 C30.409233 22.80078784 35.92598347 26.92799817 41.5 31 C48.58193227 36.17670704 55.54144725 41.48703883 62.44799805 46.89501953 C67.83206875 51.10638651 73.27182868 55.23387951 78.75073242 59.32080078 C85.26541845 64.18460887 91.72734217 69.11659927 98.18676758 74.0534668 C102.34702085 77.22975499 106.51476431 80.3934658 110.71875 83.51171875 C111.44513672 84.05119141 112.17152344 84.59066406 112.91992188 85.14648438 C114.25707407 86.13710699 115.59672172 87.12437481 116.93945312 88.10742188 C128.17753026 96.43596448 128.17753026 96.43596448 129.75 103.25 C130.03095144 107.46427159 129.59186847 110.09268648 128 114 C124.06876424 118.36721867 119.51508796 121.86804684 114.875 125.4375 C114.08585205 126.04803223 113.2967041 126.65856445 112.48364258 127.28759766 C106.16400325 132.15481223 99.75733064 136.89753574 93.31982422 141.60717773 C87.32444619 146.00041622 81.40147959 150.48158651 75.5 155 C68.11367991 160.65365962 60.66805268 166.21470389 53.1640625 171.7109375 C47.22328159 176.07277332 41.35260442 180.52071939 35.5 185 C28.56227307 190.30710039 21.59238797 195.56545762 14.5625 200.75 C13.78777344 201.32234375 13.01304687 201.8946875 12.21484375 202.484375 C10.15127879 204.00105879 8.07689246 205.50165343 6 207 C4.94554687 207.77859375 3.89109375 208.5571875 2.8046875 209.359375 C-1.73730967 212.01625357 -5.89419179 211.73363572 -11 211 C-14.60407748 209.78126132 -17.16743228 207.96968506 -19.66918945 205.0559082 C-21.71175892 200.36560513 -21.36784682 195.85134182 -21.29296875 190.79296875 C-21.28872391 189.71243729 -21.28447906 188.63190582 -21.28010559 187.51863098 C-21.26334129 184.07466494 -21.22569226 180.63128856 -21.1875 177.1875 C-21.1724503 174.84961784 -21.15876239 172.51172649 -21.14648438 170.17382812 C-21.11344511 164.44901828 -21.06326766 158.72455128 -21 153 C-34.86869423 155.25458622 -34.86869423 155.25458622 -48.375 159.0625 C-49.24439209 159.35850098 -50.11378418 159.65450195 -51.00952148 159.95947266 C-69.9054595 166.6736959 -85.47636766 177.2900856 -100 191 C-100.68707031 191.63421875 -101.37414062 192.2684375 -102.08203125 192.921875 C-117.96129261 208.08077539 -128.44244058 228.75833205 -134.75 249.5625 C-135.04825684 250.53401001 -135.04825684 250.53401001 -135.35253906 251.52514648 C-138.61504357 262.86416838 -139.39186022 274.31312509 -139.375 286.0625 C-139.37412384 286.7380896 -139.37324768 287.4136792 -139.37234497 288.10974121 C-139.22058139 323.77890845 -124.5972478 356.39553938 -99.75 381.8125 C-92.525065 388.9485583 -84.67900014 394.75648066 -76 400 C-75.33274902 400.40444336 -74.66549805 400.80888672 -73.97802734 401.22558594 C-62.61029294 407.97235682 -50.6869475 412.3902491 -38 416 C-36.75734375 416.36222656 -35.5146875 416.72445313 -34.234375 417.09765625 C-1.22653529 424.91338922 35.14190934 417.31848384 63.94580078 400.27294922 C82.05238816 389.0526323 96.99332826 374.21808968 108 356 C108.40444336 355.33274902 108.80888672 354.66549805 109.22558594 353.97802734 C115.97129226 342.61208665 120.39673309 330.68730598 124 318 C124.36222656 316.74574219 124.72445313 315.49148438 125.09765625 314.19921875 C132.28786285 283.59903719 126.0149195 250.77080303 111.5625 223.375 C108.66353387 217.81689808 106.38023471 213.281618 108 207 C111.03832437 200.3548851 115.59358766 196.56369926 121.5 192.5 C123.19930286 191.29100851 124.89716529 190.07999044 126.59375 188.8671875 C127.91826172 187.92697754 127.91826172 187.92697754 129.26953125 186.96777344 C133.91968091 183.61653897 138.45483304 180.1165406 143 176.625 C164.90251684 159.88222985 164.90251684 159.88222985 172.3125 159.6875 C173.69888672 159.63142578 173.69888672 159.63142578 175.11328125 159.57421875 C179.52823139 160.22540896 182.52382102 162.10085033 185.28149414 165.64868164 C186.56421156 167.6225507 187.73180399 169.62970063 188.875 171.6875 C189.30353271 172.44224609 189.73206543 173.19699219 190.17358398 173.97460938 C202.40282078 195.83053786 211.23769886 219.39716096 216 244 C216.16226074 244.78648926 216.32452148 245.57297852 216.49169922 246.38330078 C226.5307055 296.68193391 215.96954444 350.27259392 192 395 C191.68063477 395.60005859 191.36126953 396.20011719 191.03222656 396.81835938 C171.84171077 432.54973598 141.16606354 463.00948865 106 483 C105.32549805 483.38510742 104.65099609 483.77021484 103.95605469 484.16699219 C74.3364051 500.87857077 39.91628291 512.01627077 5.671875 512.203125 C4.80884262 512.21013931 3.94581024 512.21715363 3.05662537 512.22438049 C0.28769657 512.24178751 -2.4810185 512.24823244 -5.25 512.25 C-6.66761124 512.25101212 -6.66761124 512.25101212 -8.11386108 512.25204468 C-21.63815745 512.23667436 -34.74123473 511.8964694 -48 509 C-48.84111328 508.82839355 -49.68222656 508.65678711 -50.54882812 508.47998047 C-94.4084644 499.45147918 -132.8267587 477.8613864 -165 447 C-166.23556641 445.82630859 -166.23556641 445.82630859 -167.49609375 444.62890625 C-186.00772932 426.6305916 -200.15408579 404.29942439 -211 381 C-211.50080078 379.92588867 -211.50080078 379.92588867 -212.01171875 378.83007812 C-223.55879306 353.67869213 -231.0507067 325.49791018 -231.203125 297.70703125 C-231.21018463 296.84686905 -231.21724426 295.98670685 -231.22451782 295.10047913 C-231.45362878 258.98457597 -231.45362878 258.98457597 -228 243 C-227.69400879 241.56116455 -227.69400879 241.56116455 -227.38183594 240.09326172 C-219.89249544 205.86795679 -205.37190734 173.13582742 -183 146 C-182.56139648 145.45988281 -182.12279297 144.91976562 -181.67089844 144.36328125 C-169.41805767 129.33406413 -155.81420219 115.28513479 -140 104 C-139.01773438 103.29182129 -139.01773438 103.29182129 -138.015625 102.56933594 C-105.03951029 79.03046458 -62.17617851 60.69991585 -21 61 C-21.00888245 60.36186371 -21.01776489 59.72372742 -21.0269165 59.06625366 C-21.11551746 52.41519135 -21.17578744 45.76429713 -21.21972656 39.11279297 C-21.23982241 36.63160389 -21.26710384 34.15046205 -21.30175781 31.66943359 C-21.35036294 28.09981618 -21.37298972 24.53082584 -21.390625 20.9609375 C-21.42159271 19.30123428 -21.42159271 19.30123428 -21.45318604 17.60800171 C-21.45498357 11.41662467 -21.20460604 7.67967004 -17 3 C-11.66956673 -1.03454187 -6.43141657 -1.3701388 0 0 Z " fill="#17ACE8" transform="translate(262,0)"/>
<path d="M0 0 C0.92425781 -0.03738281 1.84851563 -0.07476562 2.80078125 -0.11328125 C7.21573139 0.53790896 10.21132102 2.41335033 12.96899414 5.96118164 C14.25171156 7.9350507 15.41930399 9.94220063 16.5625 12 C17.20529907 13.13211914 17.20529907 13.13211914 17.86108398 14.28710938 C30.09032078 36.14303786 38.92519886 59.70966096 43.6875 84.3125 C43.84976074 85.09898926 44.01202148 85.88547852 44.17919922 86.69580078 C54.2182055 136.99443391 43.65704444 190.58509392 19.6875 235.3125 C19.36813477 235.91255859 19.04876953 236.51261719 18.71972656 237.13085938 C-0.47078923 272.86223598 -31.14643646 303.32198865 -66.3125 323.3125 C-66.98700195 323.69760742 -67.66150391 324.08271484 -68.35644531 324.47949219 C-102.70644233 343.85996031 -138.99050404 352.3125 -178.3125 352.3125 C-178.3125 321.9525 -178.3125 291.5925 -178.3125 260.3125 C-173.0325 259.9825 -167.7525 259.6525 -162.3125 259.3125 C-158.97508503 258.85233752 -155.78046145 258.37221353 -152.5 257.6875 C-151.66944092 257.51565186 -150.83888184 257.34380371 -149.9831543 257.16674805 C-117.27770834 249.96580401 -86.72562319 230.49445746 -68.10131836 202.42358398 C-66.8098324 200.40258233 -65.55273451 198.36531888 -64.3125 196.3125 C-63.90805664 195.64524902 -63.50361328 194.97799805 -63.08691406 194.29052734 C-56.34120774 182.92458665 -51.91576691 170.99980598 -48.3125 158.3125 C-47.95027344 157.05824219 -47.58804688 155.80398438 -47.21484375 154.51171875 C-40.02463715 123.91153719 -46.2975805 91.08330303 -60.75 63.6875 C-63.64896613 58.12939808 -65.93226529 53.594118 -64.3125 47.3125 C-61.27417563 40.6673851 -56.71891234 36.87619926 -50.8125 32.8125 C-49.11319714 31.60350851 -47.41533471 30.39249044 -45.71875 29.1796875 C-44.83574219 28.55288086 -43.95273437 27.92607422 -43.04296875 27.28027344 C-38.39281909 23.92903897 -33.85766696 20.4290406 -29.3125 16.9375 C-7.40998316 0.19472985 -7.40998316 0.19472985 0 0 Z " fill="#1689FB" transform="translate(434.3125,159.6875)"/>
<path d="M0 0 C6.0441915 0 7.81991623 0.70592579 12.25 4.125 C13.14682495 4.79063965 13.14682495 4.79063965 14.06176758 5.46972656 C16.05629903 6.96097456 18.0302062 8.47624159 20 10 C20.69206543 10.5352832 21.38413086 11.07056641 22.09716797 11.62207031 C25.06179653 13.9218299 28.02157168 16.22758336 30.97363281 18.54345703 C36.40936239 22.7993472 41.92566693 26.92776693 47.5 31 C54.58193227 36.17670704 61.54144725 41.48703883 68.44799805 46.89501953 C73.83206875 51.10638651 79.27182868 55.23387951 84.75073242 59.32080078 C91.26541845 64.18460887 97.72734217 69.11659927 104.18676758 74.0534668 C108.34702085 77.22975499 112.51476431 80.3934658 116.71875 83.51171875 C117.44513672 84.05119141 118.17152344 84.59066406 118.91992188 85.14648438 C120.25707407 86.13710699 121.59672172 87.12437481 122.93945312 88.10742188 C134.17753026 96.43596448 134.17753026 96.43596448 135.75 103.25 C136.03095144 107.46427159 135.59186847 110.09268648 134 114 C130.06876424 118.36721867 125.51508796 121.86804684 120.875 125.4375 C120.08585205 126.04803223 119.2967041 126.65856445 118.48364258 127.28759766 C112.16400325 132.15481223 105.75733064 136.89753574 99.31982422 141.60717773 C93.32444619 146.00041622 87.40147959 150.48158651 81.5 155 C74.11367991 160.65365962 66.66805268 166.21470389 59.1640625 171.7109375 C53.22328159 176.07277332 47.35260442 180.52071939 41.5 185 C34.56227307 190.30710039 27.59238797 195.56545762 20.5625 200.75 C19.78777344 201.32234375 19.01304687 201.8946875 18.21484375 202.484375 C16.78613522 203.53445053 15.35298095 204.57851584 13.91455078 205.61523438 C12.20621798 206.85084566 10.52127105 208.11864291 8.83984375 209.390625 C6 211 6 211 0 211 C0 141.37 0 71.74 0 0 Z " fill="#1689FB" transform="translate(256,0)"/>
</svg>
